<svg xmlns="http://www.w3.org/2000/svg" xmlns:xlink="http://www.w3.org/1999/xlink" width="277" zoomAndPan="magnify" viewBox="0 0 207.75 195.750001" height="261" preserveAspectRatio="xMidYMid meet" version="1.0"><defs><clipPath id="0850463394"><path d="M 1 0.34375 L 207 0.34375 L 207 193.078125 L 1 193.078125 Z M 1 0.34375 " clip-rule="nonzero"/></clipPath><clipPath id="72fd2df412"><path d="M 1 2.195312 L 207 2.195312 L 207 194.929688 L 1 194.929688 Z M 1 2.195312 " clip-rule="nonzero"/></clipPath></defs><g clip-path="url(#0850463394)"><path fill="#ffffff" d="M 98.351562 29.785156 C 111.296875 29.785156 122.992188 35.035156 131.460938 43.515625 C 139.882812 51.996094 145.128906 63.707031 145.128906 76.617188 C 145.128906 89.53125 139.882812 101.242188 131.460938 109.722656 C 128.621094 112.515625 125.492188 114.972656 122.078125 116.996094 C 122.605469 117.140625 123.183594 117.335938 123.761719 117.480469 C 130.882812 119.597656 137.621094 122.632812 143.878906 126.394531 C 150.421875 121.140625 158.796875 118.007812 167.890625 118.007812 C 172.945312 118.007812 177.757812 118.972656 182.183594 120.753906 C 183.195312 117.574219 183.964844 114.347656 184.589844 111.070312 C 185.503906 106.15625 185.9375 101.046875 185.9375 95.796875 C 185.9375 72.136719 176.167969 50.648438 160.335938 35.132812 C 144.503906 19.617188 122.605469 9.980469 98.351562 9.980469 C 74.144531 9.980469 52.246094 19.617188 36.414062 35.132812 C 20.582031 50.648438 10.8125 72.136719 10.8125 95.796875 C 10.8125 115.3125 17.453125 133.332031 28.617188 147.738281 C 36.269531 138.003906 45.894531 129.910156 56.820312 124.128906 C 62.449219 121.140625 68.417969 118.730469 74.671875 116.996094 C 71.257812 114.972656 68.128906 112.515625 65.335938 109.722656 C 56.867188 101.242188 51.621094 89.53125 51.621094 76.617188 C 51.621094 63.707031 56.867188 51.996094 65.335938 43.515625 C 73.757812 35.035156 85.453125 29.785156 98.351562 29.785156 Z M 177.613281 140.316406 C 179.199219 138.199219 182.234375 137.765625 184.351562 139.402344 C 186.46875 140.945312 186.902344 143.980469 185.3125 146.101562 L 166.832031 170.769531 C 165.246094 172.890625 162.210938 173.324219 160.09375 171.734375 C 159.804688 171.492188 159.519531 171.203125 159.277344 170.914062 L 159.277344 170.964844 L 150.566406 160.410156 C 148.882812 158.386719 149.171875 155.351562 151.238281 153.664062 C 153.261719 151.929688 156.292969 152.21875 157.976562 154.292969 L 162.789062 160.121094 Z M 136.996094 133.476562 C 131.988281 130.679688 126.648438 128.417969 121.015625 126.730469 C 113.847656 124.5625 106.242188 123.453125 98.351562 123.453125 C 84.972656 123.453125 72.410156 126.777344 61.34375 132.609375 C 50.996094 138.148438 42.042969 145.859375 35.066406 155.109375 C 35.5 155.59375 35.933594 156.027344 36.414062 156.460938 C 52.246094 172.023438 74.144531 181.613281 98.351562 181.613281 C 105.761719 181.613281 112.882812 180.746094 119.621094 179.105469 C 124.820312 177.851562 129.824219 176.117188 134.636719 174 C 131.507812 168.554688 129.726562 162.242188 129.726562 155.542969 C 129.726562 147.304688 132.421875 139.691406 136.996094 133.476562 Z M 140.605469 181.804688 C 134.683594 184.597656 128.429688 186.863281 121.882812 188.453125 C 114.328125 190.285156 106.433594 191.296875 98.351562 191.296875 C 71.542969 191.296875 47.289062 180.601562 29.675781 163.351562 C 12.0625 146.050781 1.136719 122.199219 1.136719 95.796875 C 1.136719 69.441406 12.0625 45.589844 29.675781 28.289062 C 47.289062 11.039062 71.542969 0.34375 98.351562 0.34375 C 125.203125 0.34375 149.460938 11.039062 167.074219 28.289062 C 184.6875 45.589844 195.613281 69.441406 195.613281 95.796875 C 195.613281 101.53125 195.082031 107.214844 194.023438 112.804688 C 193.253906 117.191406 192.148438 121.429688 190.800781 125.527344 C 192.195312 126.585938 193.542969 127.742188 194.792969 128.996094 C 201.722656 135.789062 206.054688 145.183594 206.054688 155.542969 C 206.054688 165.902344 201.722656 175.300781 194.792969 182.09375 C 187.910156 188.886719 178.382812 193.078125 167.890625 193.078125 C 157.351562 193.078125 147.824219 188.886719 140.941406 182.09375 Z M 188.105469 135.835938 C 182.90625 130.777344 175.785156 127.644531 167.890625 127.644531 C 159.949219 127.644531 152.828125 130.777344 147.679688 135.835938 C 142.53125 140.894531 139.351562 147.835938 139.351562 155.542969 C 139.351562 163.253906 142.53125 170.191406 147.679688 175.25 C 152.828125 180.3125 159.949219 183.441406 167.890625 183.441406 C 175.785156 183.441406 182.90625 180.3125 188.105469 175.25 C 193.207031 170.191406 196.382812 163.253906 196.382812 155.542969 C 196.382812 147.835938 193.207031 140.894531 188.105469 135.835938 Z M 124.625 50.3125 C 117.890625 43.613281 108.648438 39.46875 98.351562 39.46875 C 88.101562 39.46875 78.859375 43.613281 72.121094 50.3125 C 65.382812 57.054688 61.246094 66.355469 61.246094 76.617188 C 61.246094 86.882812 65.382812 96.183594 72.121094 102.878906 C 78.859375 109.625 88.101562 113.769531 98.351562 113.769531 C 108.648438 113.769531 117.890625 109.625 124.625 102.878906 C 131.363281 96.183594 135.503906 86.882812 135.503906 76.617188 C 135.503906 66.355469 131.363281 57.054688 124.625 50.3125 Z M 98.351562 113.769531 Z M 98.351562 113.769531 " fill-opacity="1" fill-rule="nonzero"/></g><g clip-path="url(#72fd2df412)"><path fill="#ffffff" d="M 98.351562 31.636719 C 111.296875 31.636719 122.992188 36.886719 131.460938 45.367188 C 139.882812 53.847656 145.128906 65.558594 145.128906 78.46875 C 145.128906 91.382812 139.882812 103.09375 131.460938 111.574219 C 128.621094 114.367188 125.492188 116.824219 122.078125 118.847656 C 122.605469 118.992188 123.183594 119.1875 123.761719 119.332031 C 130.882812 121.449219 137.621094 124.484375 143.878906 128.246094 C 150.421875 122.992188 158.796875 119.859375 167.890625 119.859375 C 172.945312 119.859375 177.757812 120.824219 182.183594 122.605469 C 183.195312 119.425781 183.964844 116.199219 184.589844 112.921875 C 185.503906 108.007812 185.9375 102.898438 185.9375 97.648438 C 185.9375 73.988281 176.167969 52.5 160.335938 36.984375 C 144.503906 21.46875 122.605469 11.832031 98.351562 11.832031 C 74.144531 11.832031 52.246094 21.46875 36.414062 36.984375 C 20.582031 52.5 10.8125 73.988281 10.8125 97.648438 C 10.8125 117.164062 17.453125 135.183594 28.617188 149.589844 C 36.269531 139.855469 45.894531 131.761719 56.820312 125.980469 C 62.449219 122.992188 68.417969 120.582031 74.671875 118.847656 C 71.257812 116.824219 68.128906 114.367188 65.335938 111.574219 C 56.867188 103.09375 51.621094 91.382812 51.621094 78.46875 C 51.621094 65.558594 56.867188 53.847656 65.335938 45.367188 C 73.757812 36.886719 85.453125 31.636719 98.351562 31.636719 Z M 177.613281 142.167969 C 179.199219 140.050781 182.234375 139.617188 184.351562 141.253906 C 186.46875 142.796875 186.902344 145.832031 185.3125 147.953125 L 166.832031 172.621094 C 165.246094 174.742188 162.210938 175.175781 160.09375 173.585938 C 159.804688 173.34375 159.519531 173.054688 159.277344 172.765625 L 159.277344 172.816406 L 150.566406 162.261719 C 148.882812 160.238281 149.171875 157.203125 151.238281 155.515625 C 153.261719 153.78125 156.292969 154.070312 157.976562 156.144531 L 162.789062 161.972656 Z M 136.996094 135.328125 C 131.988281 132.53125 126.648438 130.269531 121.015625 128.582031 C 113.847656 126.414062 106.242188 125.304688 98.351562 125.304688 C 84.972656 125.304688 72.410156 128.628906 61.34375 134.460938 C 50.996094 140 42.042969 147.710938 35.066406 156.960938 C 35.5 157.445312 35.933594 157.878906 36.414062 158.3125 C 52.246094 173.875 74.144531 183.464844 98.351562 183.464844 C 105.761719 183.464844 112.882812 182.597656 119.621094 180.957031 C 124.820312 179.703125 129.824219 177.96875 134.636719 175.851562 C 131.507812 170.40625 129.726562 164.09375 129.726562 157.394531 C 129.726562 149.15625 132.421875 141.542969 136.996094 135.328125 Z M 140.605469 183.65625 C 134.683594 186.449219 128.429688 188.714844 121.882812 190.304688 C 114.328125 192.136719 106.433594 193.148438 98.351562 193.148438 C 71.542969 193.148438 47.289062 182.453125 29.675781 165.203125 C 12.0625 147.902344 1.136719 124.050781 1.136719 97.648438 C 1.136719 71.292969 12.0625 47.441406 29.675781 30.140625 C 47.289062 12.890625 71.542969 2.195312 98.351562 2.195312 C 125.203125 2.195312 149.460938 12.890625 167.074219 30.140625 C 184.6875 47.441406 195.613281 71.292969 195.613281 97.648438 C 195.613281 103.382812 195.082031 109.066406 194.023438 114.65625 C 193.253906 119.042969 192.148438 123.28125 190.800781 127.378906 C 192.195312 128.4375 193.542969 129.59375 194.792969 130.847656 C 201.722656 137.640625 206.054688 147.035156 206.054688 157.394531 C 206.054688 167.753906 201.722656 177.152344 194.792969 183.945312 C 187.910156 190.738281 178.382812 194.929688 167.890625 194.929688 C 157.351562 194.929688 147.824219 190.738281 140.941406 183.945312 Z M 188.105469 137.6875 C 182.90625 132.628906 175.785156 129.496094 167.890625 129.496094 C 159.949219 129.496094 152.828125 132.628906 147.679688 137.6875 C 142.53125 142.746094 139.351562 149.6875 139.351562 157.394531 C 139.351562 165.105469 142.53125 172.042969 147.679688 177.101562 C 152.828125 182.164062 159.949219 185.292969 167.890625 185.292969 C 175.785156 185.292969 182.90625 182.164062 188.105469 177.101562 C 193.207031 172.042969 196.382812 165.105469 196.382812 157.394531 C 196.382812 149.6875 193.207031 142.746094 188.105469 137.6875 Z M 124.625 52.160156 C 117.890625 45.464844 108.648438 41.320312 98.351562 41.320312 C 88.101562 41.320312 78.859375 45.464844 72.121094 52.160156 C 65.382812 58.90625 61.246094 68.207031 61.246094 78.46875 C 61.246094 88.734375 65.382812 98.03125 72.121094 104.730469 C 78.859375 111.476562 88.101562 115.621094 98.351562 115.621094 C 108.648438 115.621094 117.890625 111.476562 124.625 104.730469 C 131.363281 98.03125 135.503906 88.734375 135.503906 78.46875 C 135.503906 68.207031 131.363281 58.90625 124.625 52.160156 Z M 98.351562 115.621094 Z M 98.351562 115.621094 " fill-opacity="1" fill-rule="nonzero"/></g></svg>