<svg xmlns="http://www.w3.org/2000/svg" xmlns:xlink="http://www.w3.org/1999/xlink" width="236" zoomAndPan="magnify" viewBox="0 0 177 177.000001" height="236" preserveAspectRatio="xMidYMid meet" version="1.0"><defs><clipPath id="00c6264ea9"><path d="M 1.019531 0.0976562 L 176.28125 0.0976562 L 176.28125 175.355469 L 1.019531 175.355469 Z M 1.019531 0.0976562 " clip-rule="nonzero"/></clipPath><clipPath id="4427ddc11f"><path d="M 18.480469 38.402344 L 86 38.402344 L 86 127 L 18.480469 127 Z M 18.480469 38.402344 " clip-rule="nonzero"/></clipPath><clipPath id="4c60c97d87"><path d="M 43 92 L 154 92 L 154 139.828125 L 43 139.828125 Z M 43 92 " clip-rule="nonzero"/></clipPath></defs><g clip-path="url(#00c6264ea9)"><path fill="#ffffff" d="M 88.652344 0.0976562 C 40.332031 0.0976562 1.019531 39.40625 1.019531 87.726562 C 1.019531 136.046875 40.332031 175.355469 88.652344 175.355469 C 136.96875 175.355469 176.28125 136.046875 176.28125 87.726562 C 176.28125 39.40625 136.96875 0.0976562 88.652344 0.0976562 Z M 12.707031 87.726562 C 12.707031 45.851562 46.777344 11.78125 88.652344 11.78125 C 107.585938 11.78125 124.878906 18.789062 138.191406 30.292969 C 137.816406 30.527344 137.421875 30.695312 137.097656 31.019531 L 31.941406 136.175781 C 31.621094 136.496094 31.445312 136.898438 31.21875 137.265625 C 19.714844 123.953125 12.707031 106.660156 12.707031 87.726562 Z M 88.652344 163.671875 C 69.71875 163.671875 52.425781 156.660156 39.109375 145.160156 C 39.484375 144.925781 39.882812 144.757812 40.203125 144.433594 L 145.359375 39.277344 C 145.679688 38.957031 145.855469 38.554688 146.082031 38.1875 C 157.585938 51.5 164.597656 68.792969 164.597656 87.726562 C 164.597656 129.601562 130.53125 163.671875 88.652344 163.671875 Z M 88.652344 163.671875 " fill-opacity="1" fill-rule="nonzero"/></g><path fill="#ffffff" d="M 70.851562 75.140625 C 71.0625 75.140625 71.378906 75.140625 71.589844 75.035156 C 72.644531 74.609375 73.171875 73.339844 72.75 72.28125 C 69.6875 64.339844 65.78125 57.566406 61.878906 53.222656 C 61.136719 52.378906 59.765625 52.269531 58.921875 53.117188 C 58.078125 53.859375 57.972656 55.234375 58.816406 56.082031 C 62.300781 60 65.992188 66.351562 68.84375 73.765625 C 69.160156 74.714844 70.003906 75.140625 70.851562 75.140625 Z M 70.851562 75.140625 " fill-opacity="1" fill-rule="nonzero"/><g clip-path="url(#4427ddc11f)"><path fill="#ffffff" d="M 40.132812 126.066406 C 40.660156 124.582031 41.503906 123.523438 42.773438 122.570312 C 31.160156 118.441406 22.820312 107.429688 22.820312 94.410156 C 22.820312 77.894531 36.015625 42.636719 52.378906 42.636719 C 67.367188 42.636719 79.714844 72.386719 81.617188 89.855469 C 82.988281 89.644531 84.359375 89.433594 85.839844 89.222656 C 84.78125 80.644531 81.511719 68.894531 77.078125 59.894531 C 70.003906 46.023438 61.351562 38.402344 52.378906 38.402344 C 43.40625 38.402344 34.644531 46.023438 27.675781 59.894531 C 22.292969 70.695312 18.601562 85.199219 18.601562 94.410156 C 18.601562 108.808594 27.570312 121.089844 40.132812 126.066406 Z M 40.132812 126.066406 " fill-opacity="1" fill-rule="nonzero"/></g><g clip-path="url(#4c60c97d87)"><path fill="#ffffff" d="M 153.289062 109.761719 C 151.707031 105.949219 147.273438 105.949219 143.261719 105.949219 L 142.417969 105.949219 C 141.464844 105.949219 139.460938 105.949219 137.984375 105.738281 C 138.617188 107.113281 139.039062 108.597656 139.355469 110.078125 C 140.304688 110.078125 141.359375 110.183594 142.417969 110.183594 C 142.734375 110.183594 143.050781 110.183594 143.367188 110.183594 C 148.433594 110.183594 152.339844 110.289062 146.957031 115.902344 C 138.300781 124.6875 158.566406 131.570312 138.617188 131.675781 C 121.9375 131.78125 125.210938 132.628906 103.996094 135.066406 C 99.773438 135.59375 96.710938 135.804688 94.496094 135.804688 C 80.667969 135.804688 102.726562 127.019531 79.925781 127.019531 C 74.542969 127.019531 66.628906 127.546875 55.121094 128.710938 C 52.167969 129.03125 50.371094 129.136719 49.316406 129.136719 C 40.554688 129.136719 88.792969 119.183594 71.484375 110.925781 C 55.859375 103.515625 78.34375 98.960938 86.578125 97.585938 C 88.476562 95.46875 90.800781 93.5625 93.226562 92.078125 C 90.90625 92.503906 89.214844 92.820312 88.582031 92.925781 C 87.421875 93.03125 82.355469 93.773438 77.078125 95.148438 C 67.15625 97.585938 62.722656 100.550781 61.984375 104.890625 C 61.136719 110.609375 67.578125 113.679688 69.6875 114.738281 C 69.898438 114.84375 70.109375 114.949219 70.214844 115.054688 C 69.371094 115.691406 67.683594 116.75 64.515625 118.125 C 60.714844 119.820312 56.28125 121.300781 52.800781 122.464844 C 51.003906 123.101562 49.421875 123.628906 48.367188 124.054688 C 46.992188 124.582031 43.511719 125.960938 44.039062 129.558594 C 44.25 130.722656 45.09375 133.265625 49.316406 133.265625 C 50.582031 133.265625 52.484375 133.160156 55.648438 132.839844 C 66.207031 131.675781 74.332031 131.148438 79.925781 131.148438 C 82.777344 131.148438 84.675781 131.253906 85.839844 131.464844 C 85.3125 132.839844 84.886719 134.851562 86.15625 136.757812 C 87.84375 139.511719 91.117188 139.828125 94.496094 139.828125 C 96.921875 139.828125 100.195312 139.617188 104.417969 139.085938 C 111.910156 138.242188 116.449219 137.5 119.828125 136.96875 C 125.84375 136.015625 128.0625 135.699219 138.617188 135.59375 C 145.160156 135.59375 149.382812 134.851562 151.175781 131.675781 C 152.972656 128.605469 151.28125 125.746094 150.226562 123.734375 C 148.539062 120.664062 148.433594 120.03125 149.910156 118.441406 C 151.386719 117.277344 154.871094 113.679688 153.289062 109.761719 Z M 153.289062 109.761719 " fill-opacity="1" fill-rule="nonzero"/></g><path fill="#ffffff" d="M 133.761719 98.644531 C 135.238281 100.445312 136.503906 102.351562 137.457031 104.359375 C 137.984375 102.878906 138.828125 99.914062 137.136719 97.375 C 136.292969 96.101562 134.605469 94.726562 131.4375 94.621094 C 130.910156 94.621094 130.488281 94.621094 129.960938 94.726562 C 131.226562 95.996094 132.496094 97.269531 133.761719 98.644531 Z M 133.761719 98.644531 " fill-opacity="1" fill-rule="nonzero"/><path fill="#ffffff" d="M 109.589844 91.550781 C 101.355469 91.550781 93.859375 95.042969 88.792969 101.078125 C 85.207031 105.421875 83.304688 110.609375 83.304688 116.113281 C 83.304688 117.382812 83.832031 118.546875 84.78125 119.289062 C 89.851562 123.628906 99.03125 126.171875 109.589844 126.171875 C 120.039062 126.171875 129.328125 123.628906 134.394531 119.289062 C 135.34375 118.441406 135.871094 117.277344 135.871094 116.113281 C 135.871094 110.609375 133.972656 105.421875 130.382812 101.078125 C 125.421875 94.9375 117.820312 91.550781 109.589844 91.550781 Z M 131.648438 116.007812 C 127.636719 119.5 119.300781 121.832031 109.589844 121.832031 C 99.984375 121.832031 91.644531 119.394531 87.527344 116.007812 C 87.527344 111.347656 89.214844 107.113281 92.066406 103.726562 C 96.078125 98.855469 102.410156 95.679688 109.589844 95.679688 C 116.765625 95.679688 123.101562 98.855469 127.109375 103.726562 C 129.960938 107.21875 131.648438 111.453125 131.648438 116.007812 Z M 131.648438 116.007812 " fill-opacity="1" fill-rule="nonzero"/><path fill="#ffffff" d="M 109.589844 99.492188 C 108.425781 99.492188 107.476562 100.445312 107.476562 101.609375 C 107.476562 102.773438 108.425781 103.726562 109.589844 103.726562 C 113.917969 103.726562 117.820312 105.527344 120.460938 108.703125 C 120.882812 109.230469 121.515625 109.441406 122.042969 109.441406 C 122.464844 109.441406 122.996094 109.230469 123.417969 108.914062 C 124.367188 108.171875 124.472656 106.796875 123.734375 105.949219 C 120.355469 101.820312 115.183594 99.492188 109.589844 99.492188 Z M 109.589844 99.492188 " fill-opacity="1" fill-rule="nonzero"/></svg>