<svg xmlns="http://www.w3.org/2000/svg" xmlns:xlink="http://www.w3.org/1999/xlink" width="236" zoomAndPan="magnify" viewBox="0 0 177 177.000001" height="236" preserveAspectRatio="xMidYMid meet" version="1.0"><defs><clipPath id="89f87e59c2"><path d="M 0.65625 0.3125 L 175.914062 0.3125 L 175.914062 175.574219 L 0.65625 175.574219 Z M 0.65625 0.3125 " clip-rule="nonzero"/></clipPath><clipPath id="a6ad8b1cc7"><path d="M 23.394531 56 L 150 56 L 150 120 L 23.394531 120 Z M 23.394531 56 " clip-rule="nonzero"/></clipPath></defs><g clip-path="url(#89f87e59c2)"><path fill="#ffffff" d="M 88.285156 0.3125 C 39.96875 0.3125 0.65625 39.625 0.65625 87.941406 C 0.65625 136.261719 39.96875 175.574219 88.285156 175.574219 C 136.605469 175.574219 175.914062 136.261719 175.914062 87.941406 C 175.914062 39.625 136.605469 0.3125 88.285156 0.3125 Z M 12.339844 87.941406 C 12.339844 46.066406 46.410156 11.996094 88.285156 11.996094 C 107.21875 11.996094 124.511719 19.007812 137.828125 30.511719 C 137.453125 30.742188 137.054688 30.914062 136.734375 31.234375 L 31.578125 136.390625 C 31.257812 136.710938 31.082031 137.113281 30.851562 137.484375 C 19.351562 124.167969 12.339844 106.875 12.339844 87.941406 Z M 88.285156 163.890625 C 69.351562 163.890625 52.058594 156.878906 38.746094 145.375 C 39.121094 145.140625 39.515625 144.972656 39.839844 144.652344 L 144.996094 39.496094 C 145.316406 39.175781 145.492188 38.769531 145.71875 38.402344 C 157.222656 51.71875 164.230469 69.007812 164.230469 87.941406 C 164.230469 129.820312 130.167969 163.890625 88.285156 163.890625 Z M 88.285156 163.890625 " fill-opacity="1" fill-rule="nonzero"/></g><g clip-path="url(#a6ad8b1cc7)"><path fill="#ffffff" d="M 122.644531 81.726562 L 147.425781 59.648438 C 153.027344 66.714844 145.089844 81.105469 140.421875 88.011719 C 145.089844 94.917969 153.027344 109.308594 147.425781 116.375 L 122.644531 94.296875 C 101.367188 114.335938 51.753906 142.085938 23.527344 88.011719 C 51.753906 33.9375 101.367188 61.6875 122.644531 81.726562 Z M 122.644531 81.726562 " fill-opacity="1" fill-rule="nonzero"/></g></svg>