<svg xmlns="http://www.w3.org/2000/svg" xmlns:xlink="http://www.w3.org/1999/xlink" width="236" zoomAndPan="magnify" viewBox="0 0 177 177.000001" height="236" preserveAspectRatio="xMidYMid meet" version="1.0"><defs><clipPath id="c6035524d4"><path d="M 1.019531 0 L 176.28125 0 L 176.28125 175.261719 L 1.019531 175.261719 Z M 1.019531 0 " clip-rule="nonzero"/></clipPath><clipPath id="13a6b5b2cf"><path d="M 33.175781 36.238281 L 141.941406 36.238281 L 141.941406 145.125 L 33.175781 145.125 Z M 33.175781 36.238281 " clip-rule="nonzero"/></clipPath></defs><g clip-path="url(#c6035524d4)"><path fill="#ffffff" d="M 88.652344 0 C 40.332031 0 1.019531 39.3125 1.019531 87.628906 C 1.019531 135.949219 40.332031 175.261719 88.652344 175.261719 C 136.96875 175.261719 176.28125 135.949219 176.28125 87.628906 C 176.28125 39.3125 136.96875 0 88.652344 0 Z M 12.707031 87.628906 C 12.707031 45.753906 46.777344 11.683594 88.652344 11.683594 C 107.585938 11.683594 124.878906 18.695312 138.191406 30.199219 C 137.816406 30.429688 137.421875 30.601562 137.097656 30.921875 L 31.941406 136.078125 C 31.621094 136.398438 31.445312 136.800781 31.21875 137.171875 C 19.714844 123.855469 12.707031 106.5625 12.707031 87.628906 Z M 88.652344 163.574219 C 69.71875 163.574219 52.425781 156.566406 39.109375 145.0625 C 39.484375 144.828125 39.882812 144.660156 40.203125 144.339844 L 145.359375 39.183594 C 145.679688 38.859375 145.855469 38.457031 146.082031 38.089844 C 157.585938 51.402344 164.597656 68.695312 164.597656 87.628906 C 164.597656 129.503906 130.53125 163.574219 88.652344 163.574219 Z M 88.652344 163.574219 " fill-opacity="1" fill-rule="nonzero"/></g><g clip-path="url(#13a6b5b2cf)"><path fill="#ffffff" d="M 33.175781 36.238281 C 33.175781 36.238281 46.78125 36.242188 53.316406 42.230469 C 60.394531 49.851562 58.21875 58.015625 56.585938 59.652344 C 54.953125 60.738281 46.238281 63.460938 38.617188 55.839844 C 33.171875 49.851562 33.175781 36.238281 33.175781 36.238281 Z M 65.296875 42.230469 C 71.285156 42.773438 80.542969 48.757812 82.175781 56.382812 C 84.898438 66.179688 78.910156 72.71875 77.277344 73.261719 C 75.644531 73.804688 69.648438 69.992188 66.925781 62.371094 C 63.117188 51.484375 64.75 42.230469 65.296875 42.230469 Z M 90.949219 59.652344 C 90.949219 59.652344 101.839844 65.632812 101.839844 77.613281 C 101.839844 89.589844 96.941406 92.3125 94.21875 92.3125 C 91.496094 92.3125 85.507812 86.871094 85.507812 78.160156 C 85.507812 65.640625 90.949219 59.652344 90.949219 59.652344 Z M 45.15625 67.546875 C 48.828125 67.546875 53.863281 68.085938 59.304688 69.992188 C 67.472656 73.257812 70.742188 78.707031 70.195312 80.339844 C 69.652344 81.972656 63.117188 87.964844 53.316406 85.242188 C 45.148438 83.0625 39.710938 74.351562 39.164062 68.359375 C 39.164062 68.089844 41.480469 67.546875 45.15625 67.546875 Z M 111.054688 80.296875 C 111.054688 80.296875 121.945312 86.289062 121.945312 98.265625 C 121.945312 110.246094 117.046875 112.957031 114.324219 112.957031 C 111.601562 112.957031 105.613281 107.519531 105.613281 98.808594 C 105.613281 86.285156 111.054688 80.296875 111.054688 80.296875 Z M 75.316406 88.652344 C 84.027344 88.652344 89.46875 94.640625 89.46875 97.363281 C 89.46875 100.085938 86.753906 104.984375 74.777344 104.984375 C 62.800781 104.984375 56.808594 94.09375 56.808594 94.09375 C 56.808594 94.09375 62.796875 88.652344 75.316406 88.652344 Z M 131.167969 100.484375 C 131.167969 100.484375 142.058594 106.464844 142.058594 118.445312 C 142.058594 130.421875 137.160156 133.144531 134.4375 133.144531 C 131.71875 133.144531 125.730469 127.703125 125.730469 118.992188 C 125.730469 106.472656 131.167969 100.484375 131.167969 100.484375 Z M 95.636719 108.421875 C 104.347656 108.421875 109.796875 114.410156 109.796875 117.132812 C 109.796875 119.855469 107.074219 124.753906 95.097656 124.753906 C 83.117188 124.753906 77.125 113.863281 77.125 113.863281 C 77.125 113.863281 83.113281 108.421875 95.636719 108.421875 Z M 115.378906 128.792969 C 124.089844 128.792969 129.539062 134.78125 129.539062 137.503906 C 129.539062 140.226562 126.816406 145.125 114.839844 145.125 C 102.859375 145.125 96.867188 134.234375 96.867188 134.234375 C 96.867188 134.234375 102.855469 128.792969 115.378906 128.792969 Z M 115.378906 128.792969 " fill-opacity="1" fill-rule="nonzero"/></g></svg>