<svg xmlns="http://www.w3.org/2000/svg" xmlns:xlink="http://www.w3.org/1999/xlink" width="237" zoomAndPan="magnify" viewBox="0 0 177.75 177.000001" height="236" preserveAspectRatio="xMidYMid meet" version="1.0"><defs><clipPath id="5c8de46f23"><path d="M 1.019531 0.3125 L 176.527344 0.3125 L 176.527344 175.820312 L 1.019531 175.820312 Z M 1.019531 0.3125 " clip-rule="nonzero"/></clipPath><clipPath id="e23ea0385d"><path d="M 68 29.175781 L 112 29.175781 L 112 60 L 68 60 Z M 68 29.175781 " clip-rule="nonzero"/></clipPath><clipPath id="7ef4147913"><path d="M 45 68 L 89 68 L 89 149.417969 L 45 149.417969 Z M 45 68 " clip-rule="nonzero"/></clipPath><clipPath id="9a01f22000"><path d="M 83 55 L 130.878906 55 L 130.878906 149.417969 L 83 149.417969 Z M 83 55 " clip-rule="nonzero"/></clipPath></defs><g clip-path="url(#5c8de46f23)"><path fill="#ffffff" d="M 88.773438 0.3125 C 40.386719 0.3125 1.019531 39.679688 1.019531 88.066406 C 1.019531 136.453125 40.386719 175.820312 88.773438 175.820312 C 137.160156 175.820312 176.527344 136.453125 176.527344 88.066406 C 176.527344 39.679688 137.160156 0.3125 88.773438 0.3125 Z M 12.71875 88.066406 C 12.71875 46.132812 46.839844 12.015625 88.773438 12.015625 C 107.734375 12.015625 125.050781 19.035156 138.382812 30.554688 C 138.007812 30.789062 137.609375 30.957031 137.289062 31.277344 L 31.984375 136.582031 C 31.664062 136.902344 31.488281 137.308594 31.257812 137.675781 C 19.742188 124.34375 12.71875 107.027344 12.71875 88.066406 Z M 88.773438 164.121094 C 69.8125 164.121094 52.496094 157.097656 39.164062 145.582031 C 39.539062 145.347656 39.933594 145.175781 40.257812 144.855469 L 145.5625 39.550781 C 145.882812 39.230469 146.058594 38.824219 146.285156 38.457031 C 157.804688 51.789062 164.824219 69.105469 164.824219 88.066406 C 164.824219 130 130.714844 164.121094 88.773438 164.121094 Z M 88.773438 164.121094 " fill-opacity="1" fill-rule="nonzero"/></g><g clip-path="url(#e23ea0385d)"><path fill="#ffffff" d="M 73.050781 40.859375 L 107.320312 54.175781 L 107.320312 48.066406 L 73.050781 34.75 Z M 109.460938 59.445312 C 109.203125 59.445312 108.933594 59.394531 108.683594 59.292969 L 70.132812 44.3125 C 69.3125 43.996094 68.765625 43.203125 68.765625 42.324219 L 68.765625 31.625 C 68.765625 30.914062 69.117188 30.253906 69.695312 29.859375 C 70.289062 29.457031 71.027344 29.375 71.6875 29.632812 L 110.238281 44.613281 C 111.058594 44.933594 111.601562 45.726562 111.601562 46.605469 L 111.601562 57.304688 C 111.601562 58.015625 111.253906 58.675781 110.675781 59.066406 C 110.304688 59.320312 109.886719 59.445312 109.460938 59.445312 " fill-opacity="1" fill-rule="nonzero"/></g><g clip-path="url(#7ef4147913)"><path fill="#ffffff" d="M 49.492188 128.675781 L 83.761719 143.890625 L 83.761719 88.652344 L 49.492188 73.4375 Z M 85.902344 149.324219 C 85.609375 149.324219 85.308594 149.265625 85.03125 149.140625 L 46.480469 132.019531 C 45.710938 131.679688 45.207031 130.910156 45.207031 130.0625 L 45.207031 70.144531 C 45.207031 69.417969 45.574219 68.738281 46.179688 68.347656 C 46.789062 67.953125 47.558594 67.894531 48.21875 68.1875 L 86.773438 85.308594 C 87.550781 85.652344 88.042969 86.417969 88.042969 87.265625 L 88.042969 147.183594 C 88.042969 147.910156 87.675781 148.589844 87.066406 148.980469 C 86.714844 149.207031 86.3125 149.324219 85.902344 149.324219 " fill-opacity="1" fill-rule="nonzero"/></g><path fill="#ffffff" d="M 47.347656 72.285156 C 46.855469 72.285156 46.371094 72.117188 45.96875 71.78125 C 45.066406 71.011719 44.949219 69.667969 45.710938 68.765625 L 69.269531 40.945312 C 70.039062 40.042969 71.386719 39.925781 72.289062 40.683594 C 73.191406 41.453125 73.308594 42.800781 72.550781 43.703125 L 48.980469 71.523438 C 48.5625 72.023438 47.953125 72.285156 47.347656 72.285156 " fill-opacity="1" fill-rule="nonzero"/><g clip-path="url(#9a01f22000)"><path fill="#ffffff" d="M 109.828125 60.304688 L 92.117188 82.824219 L 124.320312 71.558594 Z M 85.902344 149.324219 C 85.015625 149.324219 84.1875 148.773438 83.878906 147.886719 C 83.492188 146.773438 84.078125 145.554688 85.191406 145.160156 L 126.597656 130.683594 L 126.597656 75.300781 L 86.613281 89.289062 C 85.710938 89.597656 84.714844 89.277344 84.160156 88.507812 C 83.601562 87.730469 83.632812 86.6875 84.21875 85.945312 L 107.78125 55.984375 C 108.507812 55.054688 109.839844 54.886719 110.773438 55.617188 L 130.027344 70.578125 C 130.34375 70.8125 130.59375 71.148438 130.746094 71.539062 C 130.753906 71.566406 130.769531 71.589844 130.777344 71.625 C 130.855469 71.859375 130.886719 72.101562 130.878906 72.335938 L 130.878906 132.203125 C 130.878906 133.117188 130.300781 133.925781 129.449219 134.226562 L 86.613281 149.207031 C 86.371094 149.292969 86.136719 149.324219 85.902344 149.324219 " fill-opacity="1" fill-rule="nonzero"/></g><path fill="#ffffff" d="M 95.539062 135.414062 C 94.667969 135.414062 93.839844 134.878906 93.523438 134.011719 C 93.121094 132.898438 93.699219 131.667969 94.804688 131.269531 L 118.363281 122.699219 C 119.484375 122.296875 120.707031 122.875 121.117188 123.980469 C 121.515625 125.089844 120.941406 126.320312 119.835938 126.730469 L 96.277344 135.28125 C 96.023438 135.371094 95.78125 135.414062 95.539062 135.414062 " fill-opacity="1" fill-rule="nonzero"/></svg>