<svg xmlns="http://www.w3.org/2000/svg" xmlns:xlink="http://www.w3.org/1999/xlink" width="301" zoomAndPan="magnify" viewBox="0 0 225.75 199.499995" height="266" preserveAspectRatio="xMidYMid meet" version="1.0"><defs><clipPath id="f3c5f5d31b"><path d="M 0.328125 0.125 L 225 0.125 L 225 153 L 0.328125 153 Z M 0.328125 0.125 " clip-rule="nonzero"/></clipPath><clipPath id="d70979dfb3"><path d="M 159 168 L 190 168 L 190 198.597656 L 159 198.597656 Z M 159 168 " clip-rule="nonzero"/></clipPath><clipPath id="784a7c8dda"><path d="M 72 168 L 103 168 L 103 198.597656 L 72 198.597656 Z M 72 168 " clip-rule="nonzero"/></clipPath><clipPath id="dd74f18bff"><path d="M 0.328125 0.125 L 225 0.125 L 225 153 L 0.328125 153 Z M 0.328125 0.125 " clip-rule="nonzero"/></clipPath><clipPath id="a63218f6d1"><path d="M 159 168 L 190 168 L 190 198.597656 L 159 198.597656 Z M 159 168 " clip-rule="nonzero"/></clipPath><clipPath id="2d81d3b0bb"><path d="M 72 168 L 103 168 L 103 198.597656 L 72 198.597656 Z M 72 168 " clip-rule="nonzero"/></clipPath></defs><path fill="#ffffff" d="M 126.265625 116.65625 C 126.441406 116.65625 126.617188 116.832031 126.792969 116.832031 C 127.492188 116.832031 128.191406 116.308594 128.542969 115.609375 L 132.921875 103.378906 C 133.273438 102.503906 132.746094 101.457031 131.871094 101.105469 C 130.996094 100.757812 129.945312 101.28125 129.59375 102.15625 L 125.214844 114.386719 C 124.867188 115.433594 125.390625 116.308594 126.265625 116.65625 Z M 126.265625 116.65625 " fill-opacity="1" fill-rule="nonzero"/><path fill="#ffffff" d="M 122.0625 90.273438 L 110.503906 95.691406 C 109.628906 96.039062 109.277344 97.261719 109.628906 98.136719 C 109.980469 98.835938 110.503906 99.183594 111.207031 99.183594 C 111.378906 99.183594 111.730469 99.183594 111.90625 99.011719 L 123.464844 93.59375 C 124.339844 93.246094 124.691406 92.023438 124.339844 91.148438 C 123.988281 90.273438 122.9375 89.925781 122.0625 90.273438 Z M 122.0625 90.273438 " fill-opacity="1" fill-rule="nonzero"/><path fill="#ffffff" d="M 126.089844 78.742188 C 126.441406 77.871094 125.917969 76.820312 125.039062 76.472656 L 112.957031 72.105469 C 112.082031 71.753906 111.03125 72.28125 110.679688 73.152344 C 110.328125 74.027344 110.855469 75.074219 111.730469 75.425781 L 123.816406 79.792969 C 123.988281 79.792969 124.164062 79.964844 124.515625 79.964844 C 125.214844 79.964844 125.742188 79.441406 126.089844 78.742188 Z M 126.089844 78.742188 " fill-opacity="1" fill-rule="nonzero"/><path fill="#ffffff" d="M 135.199219 71.40625 C 135.375 71.40625 135.722656 71.40625 135.898438 71.230469 C 136.773438 70.882812 137.125 69.660156 136.773438 68.785156 L 131.34375 57.078125 C 130.996094 56.207031 129.769531 55.855469 128.894531 56.207031 C 128.191406 56.554688 127.84375 57.777344 128.191406 58.652344 L 133.621094 70.359375 C 133.972656 70.882812 134.5 71.40625 135.199219 71.40625 Z M 135.199219 71.40625 " fill-opacity="1" fill-rule="nonzero"/><path fill="#ffffff" d="M 149.035156 72.976562 C 149.734375 72.976562 150.433594 72.453125 150.785156 71.753906 L 155.164062 59.527344 C 155.515625 58.652344 154.988281 57.605469 154.113281 57.253906 C 153.238281 56.90625 152.1875 57.429688 151.835938 58.300781 L 147.457031 70.53125 C 147.109375 71.40625 147.632812 72.453125 148.507812 72.804688 C 148.507812 72.976562 148.683594 72.976562 149.035156 72.976562 Z M 149.035156 72.976562 " fill-opacity="1" fill-rule="nonzero"/><path fill="#ffffff" d="M 157.441406 83.984375 C 157.617188 83.984375 157.964844 83.984375 158.140625 83.808594 L 169.699219 78.394531 C 170.574219 78.042969 170.925781 76.820312 170.574219 75.949219 C 170.226562 75.074219 169 74.726562 168.125 75.074219 L 156.566406 80.492188 C 155.6875 80.839844 155.339844 82.0625 155.6875 82.9375 C 156.214844 83.460938 156.914062 83.984375 157.441406 83.984375 Z M 157.441406 83.984375 " fill-opacity="1" fill-rule="nonzero"/><g clip-path="url(#f3c5f5d31b)"><path fill="#ffffff" d="M 206.128906 34.367188 L 54.289062 34.367188 C 49.03125 9.734375 34.671875 8.160156 33.445312 7.984375 L 22.414062 7.984375 C 20.660156 3.792969 16.632812 0.125 11.730469 0.125 C 5.425781 0.125 0.347656 5.191406 0.347656 11.480469 C 0.347656 17.769531 5.425781 23.011719 11.730469 23.011719 C 16.632812 23.011719 20.660156 19.167969 22.414062 14.972656 L 32.746094 14.972656 C 33.097656 14.972656 42.726562 17.945312 46.40625 38.035156 C 51.132812 64.765625 63.394531 131.855469 63.394531 131.855469 C 63.394531 139.367188 67.949219 152.996094 84.761719 152.996094 L 149.558594 152.996094 L 146.933594 146.183594 L 84.585938 146.183594 C 77.40625 146.183594 74.253906 140.941406 72.851562 137.273438 C 84.234375 136.574219 115.410156 134.476562 142.90625 132.554688 L 140.453125 123.992188 C 112.429688 125.914062 81.433594 128.011719 71.449219 128.710938 C 69.171875 117.355469 60.59375 69.132812 55.863281 42.929688 L 204.902344 42.929688 C 211.730469 42.929688 216.636719 48.519531 215.761719 55.332031 L 209.453125 106.699219 C 209.453125 106.871094 209.28125 107.921875 208.578125 109.316406 L 216.285156 113.160156 C 217.6875 110.191406 218.035156 108.09375 218.035156 107.746094 L 224.515625 54.984375 C 225.742188 43.625 217.6875 34.367188 206.128906 34.367188 Z M 206.128906 34.367188 " fill-opacity="1" fill-rule="nonzero"/></g><path fill="#ffffff" d="M 188.964844 127.664062 L 203.675781 121.898438 C 205.078125 121.375 205.953125 120.152344 205.953125 118.753906 C 205.953125 117.355469 205.25 115.957031 204.027344 115.257812 L 142.027344 83.984375 C 140.804688 83.285156 139.226562 83.460938 138 84.507812 C 136.949219 85.382812 136.425781 86.957031 136.949219 88.351562 L 157.964844 155.964844 C 158.316406 157.363281 159.71875 158.414062 161.117188 158.585938 C 162.519531 158.761719 163.921875 157.886719 164.621094 156.664062 L 173.027344 140.589844 L 191.066406 164.527344 C 191.589844 165.226562 192.46875 165.75 193.519531 165.925781 C 193.691406 165.925781 193.867188 165.925781 194.042969 165.925781 C 194.742188 165.925781 195.621094 165.75 196.320312 165.226562 L 207.351562 156.664062 C 208.054688 156.140625 208.578125 155.265625 208.753906 154.21875 C 208.929688 153.171875 208.578125 152.296875 208.054688 151.421875 Z M 194.570312 157.1875 L 175.304688 131.679688 C 174.601562 130.808594 173.550781 130.285156 172.5 130.285156 C 172.328125 130.285156 172.328125 130.285156 172.152344 130.285156 C 170.925781 130.457031 169.875 131.15625 169.175781 132.207031 L 162.167969 145.660156 L 146.230469 94.46875 L 193.34375 118.230469 L 181.785156 122.769531 C 180.734375 123.121094 179.859375 124.167969 179.683594 125.21875 C 179.332031 126.265625 179.683594 127.488281 180.382812 128.363281 L 199.996094 153.171875 Z M 194.570312 157.1875 " fill-opacity="1" fill-rule="nonzero"/><g clip-path="url(#d70979dfb3)"><path fill="#ffffff" d="M 174.078125 168.195312 C 165.847656 168.195312 159.015625 175.011719 159.015625 183.394531 C 159.015625 191.78125 165.847656 198.597656 174.078125 198.597656 C 182.308594 198.597656 189.140625 191.78125 189.140625 183.394531 C 189.140625 175.011719 182.308594 168.195312 174.078125 168.195312 Z M 174.078125 191.257812 C 169.699219 191.257812 166.195312 187.765625 166.195312 183.394531 C 166.195312 179.027344 169.699219 175.535156 174.078125 175.535156 C 178.457031 175.535156 181.960938 179.027344 181.960938 183.394531 C 181.960938 187.589844 178.457031 191.257812 174.078125 191.257812 Z M 174.078125 191.257812 " fill-opacity="1" fill-rule="nonzero"/></g><g clip-path="url(#784a7c8dda)"><path fill="#ffffff" d="M 87.386719 168.195312 C 79.15625 168.195312 72.324219 175.011719 72.324219 183.394531 C 72.324219 191.78125 79.15625 198.597656 87.386719 198.597656 C 95.617188 198.597656 102.449219 191.78125 102.449219 183.394531 C 102.449219 175.011719 95.617188 168.195312 87.386719 168.195312 Z M 87.386719 191.257812 C 83.007812 191.257812 79.507812 187.765625 79.507812 183.394531 C 79.507812 179.027344 83.007812 175.535156 87.386719 175.535156 C 91.765625 175.535156 95.269531 179.027344 95.269531 183.394531 C 95.269531 187.589844 91.765625 191.257812 87.386719 191.257812 Z M 87.386719 191.257812 " fill-opacity="1" fill-rule="nonzero"/></g><path fill="#ffffff" d="M 126.265625 116.65625 C 126.441406 116.65625 126.617188 116.832031 126.792969 116.832031 C 127.492188 116.832031 128.191406 116.308594 128.542969 115.609375 L 132.921875 103.378906 C 133.273438 102.503906 132.746094 101.457031 131.871094 101.105469 C 130.996094 100.757812 129.945312 101.28125 129.59375 102.15625 L 125.214844 114.386719 C 124.867188 115.433594 125.390625 116.308594 126.265625 116.65625 Z M 126.265625 116.65625 " fill-opacity="1" fill-rule="nonzero"/><path fill="#ffffff" d="M 122.0625 90.273438 L 110.503906 95.691406 C 109.628906 96.039062 109.277344 97.261719 109.628906 98.136719 C 109.980469 98.835938 110.503906 99.183594 111.207031 99.183594 C 111.378906 99.183594 111.730469 99.183594 111.90625 99.011719 L 123.464844 93.59375 C 124.339844 93.246094 124.691406 92.023438 124.339844 91.148438 C 123.988281 90.273438 122.9375 89.925781 122.0625 90.273438 Z M 122.0625 90.273438 " fill-opacity="1" fill-rule="nonzero"/><path fill="#ffffff" d="M 126.089844 78.742188 C 126.441406 77.871094 125.917969 76.820312 125.039062 76.472656 L 112.957031 72.105469 C 112.082031 71.753906 111.03125 72.28125 110.679688 73.152344 C 110.328125 74.027344 110.855469 75.074219 111.730469 75.425781 L 123.816406 79.792969 C 123.988281 79.792969 124.164062 79.964844 124.515625 79.964844 C 125.214844 79.964844 125.742188 79.441406 126.089844 78.742188 Z M 126.089844 78.742188 " fill-opacity="1" fill-rule="nonzero"/><path fill="#ffffff" d="M 135.199219 71.40625 C 135.375 71.40625 135.722656 71.40625 135.898438 71.230469 C 136.773438 70.882812 137.125 69.660156 136.773438 68.785156 L 131.34375 57.078125 C 130.996094 56.207031 129.769531 55.855469 128.894531 56.207031 C 128.191406 56.554688 127.84375 57.777344 128.191406 58.652344 L 133.621094 70.359375 C 133.972656 70.882812 134.5 71.40625 135.199219 71.40625 Z M 135.199219 71.40625 " fill-opacity="1" fill-rule="nonzero"/><path fill="#ffffff" d="M 149.035156 72.976562 C 149.734375 72.976562 150.433594 72.453125 150.785156 71.753906 L 155.164062 59.527344 C 155.515625 58.652344 154.988281 57.605469 154.113281 57.253906 C 153.238281 56.90625 152.1875 57.429688 151.835938 58.300781 L 147.457031 70.53125 C 147.109375 71.40625 147.632812 72.453125 148.507812 72.804688 C 148.507812 72.976562 148.683594 72.976562 149.035156 72.976562 Z M 149.035156 72.976562 " fill-opacity="1" fill-rule="nonzero"/><path fill="#ffffff" d="M 157.441406 83.984375 C 157.617188 83.984375 157.964844 83.984375 158.140625 83.808594 L 169.699219 78.394531 C 170.574219 78.042969 170.925781 76.820312 170.574219 75.949219 C 170.226562 75.074219 169 74.726562 168.125 75.074219 L 156.566406 80.492188 C 155.6875 80.839844 155.339844 82.0625 155.6875 82.9375 C 156.214844 83.460938 156.914062 83.984375 157.441406 83.984375 Z M 157.441406 83.984375 " fill-opacity="1" fill-rule="nonzero"/><g clip-path="url(#dd74f18bff)"><path fill="#ffffff" d="M 206.128906 34.367188 L 54.289062 34.367188 C 49.03125 9.734375 34.671875 8.160156 33.445312 7.984375 L 22.414062 7.984375 C 20.660156 3.792969 16.632812 0.125 11.730469 0.125 C 5.425781 0.125 0.347656 5.191406 0.347656 11.480469 C 0.347656 17.769531 5.425781 23.011719 11.730469 23.011719 C 16.632812 23.011719 20.660156 19.167969 22.414062 14.972656 L 32.746094 14.972656 C 33.097656 14.972656 42.726562 17.945312 46.40625 38.035156 C 51.132812 64.765625 63.394531 131.855469 63.394531 131.855469 C 63.394531 139.367188 67.949219 152.996094 84.761719 152.996094 L 149.558594 152.996094 L 146.933594 146.183594 L 84.585938 146.183594 C 77.40625 146.183594 74.253906 140.941406 72.851562 137.273438 C 84.234375 136.574219 115.410156 134.476562 142.90625 132.554688 L 140.453125 123.992188 C 112.429688 125.914062 81.433594 128.011719 71.449219 128.710938 C 69.171875 117.355469 60.59375 69.132812 55.863281 42.929688 L 204.902344 42.929688 C 211.730469 42.929688 216.636719 48.519531 215.761719 55.332031 L 209.453125 106.699219 C 209.453125 106.871094 209.28125 107.921875 208.578125 109.316406 L 216.285156 113.160156 C 217.6875 110.191406 218.035156 108.09375 218.035156 107.746094 L 224.515625 54.984375 C 225.742188 43.625 217.6875 34.367188 206.128906 34.367188 Z M 206.128906 34.367188 " fill-opacity="1" fill-rule="nonzero"/></g><path fill="#ffffff" d="M 188.964844 127.664062 L 203.675781 121.898438 C 205.078125 121.375 205.953125 120.152344 205.953125 118.753906 C 205.953125 117.355469 205.25 115.957031 204.027344 115.257812 L 142.027344 83.984375 C 140.804688 83.285156 139.226562 83.460938 138 84.507812 C 136.949219 85.382812 136.425781 86.957031 136.949219 88.351562 L 157.964844 155.964844 C 158.316406 157.363281 159.71875 158.414062 161.117188 158.585938 C 162.519531 158.761719 163.921875 157.886719 164.621094 156.664062 L 173.027344 140.589844 L 191.066406 164.527344 C 191.589844 165.226562 192.46875 165.75 193.519531 165.925781 C 193.691406 165.925781 193.867188 165.925781 194.042969 165.925781 C 194.742188 165.925781 195.621094 165.75 196.320312 165.226562 L 207.351562 156.664062 C 208.054688 156.140625 208.578125 155.265625 208.753906 154.21875 C 208.929688 153.171875 208.578125 152.296875 208.054688 151.421875 Z M 194.570312 157.1875 L 175.304688 131.679688 C 174.601562 130.808594 173.550781 130.285156 172.5 130.285156 C 172.328125 130.285156 172.328125 130.285156 172.152344 130.285156 C 170.925781 130.457031 169.875 131.15625 169.175781 132.207031 L 162.167969 145.660156 L 146.230469 94.46875 L 193.34375 118.230469 L 181.785156 122.769531 C 180.734375 123.121094 179.859375 124.167969 179.683594 125.21875 C 179.332031 126.265625 179.683594 127.488281 180.382812 128.363281 L 199.996094 153.171875 Z M 194.570312 157.1875 " fill-opacity="1" fill-rule="nonzero"/><g clip-path="url(#a63218f6d1)"><path fill="#ffffff" d="M 174.078125 168.195312 C 165.847656 168.195312 159.015625 175.011719 159.015625 183.394531 C 159.015625 191.78125 165.847656 198.597656 174.078125 198.597656 C 182.308594 198.597656 189.140625 191.78125 189.140625 183.394531 C 189.140625 175.011719 182.308594 168.195312 174.078125 168.195312 Z M 174.078125 191.257812 C 169.699219 191.257812 166.195312 187.765625 166.195312 183.394531 C 166.195312 179.027344 169.699219 175.535156 174.078125 175.535156 C 178.457031 175.535156 181.960938 179.027344 181.960938 183.394531 C 181.960938 187.589844 178.457031 191.257812 174.078125 191.257812 Z M 174.078125 191.257812 " fill-opacity="1" fill-rule="nonzero"/></g><g clip-path="url(#2d81d3b0bb)"><path fill="#ffffff" d="M 87.386719 168.195312 C 79.15625 168.195312 72.324219 175.011719 72.324219 183.394531 C 72.324219 191.78125 79.15625 198.597656 87.386719 198.597656 C 95.617188 198.597656 102.449219 191.78125 102.449219 183.394531 C 102.449219 175.011719 95.617188 168.195312 87.386719 168.195312 Z M 87.386719 191.257812 C 83.007812 191.257812 79.507812 187.765625 79.507812 183.394531 C 79.507812 179.027344 83.007812 175.535156 87.386719 175.535156 C 91.765625 175.535156 95.269531 179.027344 95.269531 183.394531 C 95.269531 187.589844 91.765625 191.257812 87.386719 191.257812 Z M 87.386719 191.257812 " fill-opacity="1" fill-rule="nonzero"/></g></svg>