<svg xmlns="http://www.w3.org/2000/svg" xmlns:xlink="http://www.w3.org/1999/xlink" width="266" zoomAndPan="magnify" viewBox="0 0 199.5 199.499992" height="266" preserveAspectRatio="xMidYMid meet" version="1.0"><defs><clipPath id="a3094923c3"><path d="M 0.410156 49 L 170 49 L 170 198.875 L 0.410156 198.875 Z M 0.410156 49 " clip-rule="nonzero"/></clipPath><clipPath id="d5edd61db0"><path d="M 86 0.125 L 199 0.125 L 199 140 L 86 140 Z M 86 0.125 " clip-rule="nonzero"/></clipPath><clipPath id="716eb61149"><path d="M 0.410156 49 L 170 49 L 170 198.875 L 0.410156 198.875 Z M 0.410156 49 " clip-rule="nonzero"/></clipPath><clipPath id="34e84b4b19"><path d="M 86 0.125 L 199 0.125 L 199 140 L 86 140 Z M 86 0.125 " clip-rule="nonzero"/></clipPath></defs><g clip-path="url(#a3094923c3)"><path fill="#ffffff" d="M 3.722656 198.875 L 20.285156 198.875 C 20.664062 198.867188 21.027344 198.789062 21.375 198.640625 L 67.75 182.078125 C 68.070312 181.96875 68.367188 181.808594 68.640625 181.605469 C 68.914062 181.402344 69.148438 181.164062 69.347656 180.886719 C 69.542969 180.613281 69.695312 180.3125 69.804688 179.992188 C 69.910156 179.667969 69.964844 179.339844 69.972656 179 L 69.972656 172.375 L 70.800781 172.375 C 71.101562 172.378906 71.378906 172.46875 71.628906 172.636719 L 84.148438 180.953125 C 85.5 181.859375 86.992188 182.308594 88.621094 182.3125 L 134.996094 182.3125 C 136.027344 182.300781 137.019531 182.109375 137.980469 181.734375 C 138.9375 181.355469 139.800781 180.820312 140.558594 180.125 L 168.121094 154.949219 C 168.898438 154.316406 169.308594 153.5 169.347656 152.5 C 169.324219 152.007812 169.199219 151.546875 168.976562 151.113281 C 168.75 150.679688 168.441406 150.3125 168.054688 150.015625 L 159.375 143.390625 C 159.078125 143.140625 158.746094 142.953125 158.382812 142.820312 C 158.019531 142.6875 157.640625 142.621094 157.253906 142.621094 C 156.867188 142.621094 156.492188 142.6875 156.128906 142.820312 C 155.761719 142.953125 155.433594 143.140625 155.136719 143.390625 L 137.777344 159.125 L 119.359375 159.125 L 122.441406 154.289062 C 122.566406 154.089844 122.671875 153.882812 122.753906 153.660156 C 122.835938 153.441406 122.894531 153.214844 122.925781 152.984375 C 122.960938 152.753906 122.96875 152.519531 122.953125 152.285156 C 122.9375 152.050781 122.898438 151.820312 122.835938 151.597656 C 122.769531 151.371094 122.683594 151.15625 122.574219 150.949219 C 122.464844 150.742188 122.332031 150.546875 122.183594 150.367188 C 122.03125 150.191406 121.863281 150.027344 121.675781 149.882812 C 121.492188 149.742188 121.292969 149.617188 121.082031 149.515625 L 86.300781 132.953125 C 85.855469 132.726562 85.378906 132.613281 84.878906 132.625 L 69.972656 132.625 L 69.972656 53.125 C 69.976562 52.875 69.953125 52.625 69.902344 52.378906 C 69.851562 52.136719 69.777344 51.898438 69.671875 51.671875 C 69.566406 51.445312 69.4375 51.230469 69.285156 51.03125 C 69.132812 50.835938 68.960938 50.65625 68.769531 50.496094 C 68.578125 50.335938 68.367188 50.199219 68.144531 50.089844 C 67.921875 49.976562 67.6875 49.890625 67.445312 49.832031 C 67.203125 49.773438 66.953125 49.742188 66.703125 49.738281 C 66.453125 49.734375 66.207031 49.757812 65.960938 49.8125 L 20.285156 59.75 L 4.382812 56.4375 C 3.894531 56.339844 3.410156 56.351562 2.929688 56.476562 C 2.449219 56.597656 2.015625 56.816406 1.632812 57.132812 C 1.238281 57.449219 0.9375 57.839844 0.71875 58.300781 C 0.503906 58.757812 0.402344 59.242188 0.410156 59.75 L 0.410156 195.5625 C 0.410156 196 0.492188 196.421875 0.660156 196.828125 C 0.828125 197.234375 1.066406 197.59375 1.378906 197.902344 C 1.6875 198.214844 2.046875 198.453125 2.453125 198.621094 C 2.859375 198.789062 3.28125 198.875 3.722656 198.875 Z M 23.597656 132.625 L 46.785156 132.625 L 46.785156 172.375 L 23.597656 172.375 Z M 63.347656 176.679688 L 23.597656 190.855469 L 23.597656 179 L 50.097656 179 C 50.535156 179 50.957031 178.914062 51.363281 178.746094 C 51.769531 178.578125 52.128906 178.339844 52.4375 178.027344 C 52.75 177.71875 52.988281 177.359375 53.15625 176.953125 C 53.324219 176.546875 53.410156 176.125 53.410156 175.6875 L 53.410156 172.375 L 63.347656 172.375 Z M 114.855469 153.890625 L 111.542969 159.125 L 109.324219 159.125 L 88.621094 149.484375 L 85.835938 155.511719 L 107.171875 165.449219 C 107.613281 165.652344 108.074219 165.75 108.5625 165.75 L 139.070312 165.75 C 139.933594 165.753906 140.683594 165.46875 141.320312 164.886719 L 157.585938 150.179688 L 160.898438 152.730469 L 136.222656 175.222656 C 135.914062 175.511719 135.550781 175.667969 135.128906 175.6875 L 88.753906 175.6875 C 88.453125 175.667969 88.175781 175.582031 87.925781 175.421875 L 75.269531 167.105469 C 73.917969 166.199219 72.429688 165.746094 70.800781 165.75 L 53.410156 165.75 L 53.410156 139.25 L 84.113281 139.25 Z M 63.347656 132.625 L 53.410156 132.625 L 53.410156 129.3125 C 53.410156 128.871094 53.324219 128.449219 53.15625 128.042969 C 52.988281 127.636719 52.75 127.28125 52.4375 126.96875 C 52.128906 126.65625 51.769531 126.417969 51.363281 126.25 C 50.957031 126.082031 50.535156 126 50.097656 126 L 23.597656 126 L 23.597656 65.746094 L 63.347656 57.230469 Z M 7.035156 63.789062 L 16.972656 65.777344 L 16.972656 192.25 L 7.035156 192.25 Z M 7.035156 63.789062 " fill-opacity="1" fill-rule="nonzero"/></g><g clip-path="url(#d5edd61db0)"><path fill="#ffffff" d="M 89.847656 82.9375 L 114.390625 82.9375 L 113.035156 105.925781 C 112.972656 106.882812 113.269531 107.710938 113.925781 108.410156 C 114.585938 109.101562 115.390625 109.441406 116.347656 109.4375 L 141.089844 109.4375 L 139.535156 135.738281 C 139.472656 136.695312 139.769531 137.523438 140.425781 138.222656 C 141.085938 138.910156 141.890625 139.253906 142.847656 139.25 L 195.847656 139.25 C 196.800781 139.253906 197.605469 138.914062 198.265625 138.222656 C 198.921875 137.523438 199.21875 136.695312 199.160156 135.738281 L 195.847656 79.425781 C 195.820312 79.003906 195.71875 78.601562 195.539062 78.21875 C 195.359375 77.835938 195.117188 77.5 194.808594 77.210938 C 194.5 76.921875 194.148438 76.699219 193.757812 76.542969 C 193.363281 76.386719 192.957031 76.308594 192.535156 76.3125 L 185.015625 76.3125 C 182.894531 64.71875 177.03125 56.765625 169.742188 56.4375 L 169.347656 49.613281 C 169.320312 49.191406 169.21875 48.789062 169.039062 48.40625 C 168.859375 48.023438 168.617188 47.6875 168.308594 47.398438 C 168 47.109375 167.648438 46.886719 167.257812 46.730469 C 166.863281 46.574219 166.457031 46.496094 166.035156 46.5 L 158.515625 46.5 C 156.359375 34.804688 150.429688 26.789062 143.042969 26.625 L 142.847656 23.113281 C 142.820312 22.691406 142.71875 22.289062 142.539062 21.90625 C 142.359375 21.523438 142.117188 21.1875 141.808594 20.898438 C 141.5 20.609375 141.148438 20.386719 140.757812 20.230469 C 140.363281 20.074219 139.957031 19.996094 139.535156 20 L 132.015625 20 C 129.828125 8.207031 123.832031 0.125 116.347656 0.125 C 108.859375 0.125 102.863281 8.207031 100.675781 20 L 93.160156 20 C 92.734375 19.996094 92.328125 20.074219 91.933594 20.230469 C 91.542969 20.386719 91.191406 20.609375 90.882812 20.898438 C 90.574219 21.1875 90.332031 21.523438 90.152344 21.90625 C 89.972656 22.289062 89.871094 22.691406 89.847656 23.113281 L 86.535156 79.425781 C 86.472656 80.382812 86.769531 81.210938 87.425781 81.910156 C 88.085938 82.601562 88.890625 82.941406 89.847656 82.9375 Z M 189.417969 82.9375 L 192.335938 132.625 L 146.355469 132.625 L 149.273438 82.9375 L 152.785156 82.9375 C 152.785156 84.027344 152.785156 85.121094 152.785156 86.25 L 159.410156 86.25 C 159.410156 85.121094 159.410156 84.027344 159.410156 82.9375 L 179.285156 82.9375 C 179.285156 84.027344 179.285156 85.121094 179.285156 86.25 L 185.910156 86.25 C 185.910156 85.121094 185.910156 84.027344 185.910156 82.9375 Z M 164.277344 76.3125 L 160.46875 76.3125 C 161.121094 73.214844 162.226562 70.289062 163.78125 67.53125 Z M 178.222656 76.3125 L 170.902344 76.3125 L 170.140625 63.0625 C 173.320312 63.890625 176.601562 68.957031 178.222656 76.3125 Z M 162.917969 53.125 L 163.21875 58.421875 C 158.679688 61.503906 155.203125 67.964844 153.675781 76.3125 L 146.160156 76.3125 C 145.734375 76.308594 145.328125 76.386719 144.933594 76.542969 C 144.542969 76.699219 144.191406 76.921875 143.882812 77.210938 C 143.574219 77.5 143.332031 77.835938 143.152344 78.21875 C 142.972656 78.601562 142.871094 79.003906 142.847656 79.425781 L 141.488281 102.8125 L 119.855469 102.8125 L 122.773438 53.125 L 126.285156 53.125 C 126.285156 54.214844 126.285156 55.308594 126.285156 56.4375 L 132.910156 56.4375 C 132.910156 55.308594 132.910156 54.214844 132.910156 53.125 L 152.785156 53.125 C 152.785156 54.214844 152.785156 55.308594 152.785156 56.4375 L 159.410156 56.4375 C 159.410156 55.308594 159.410156 54.214844 159.410156 53.125 Z M 137.578125 46.5 L 133.96875 46.5 C 134.566406 43.511719 135.601562 40.683594 137.082031 38.019531 Z M 151.722656 46.5 L 144.203125 46.5 L 143.441406 33.25 C 146.6875 33.878906 150.066406 38.980469 151.722656 46.5 Z M 116.347656 6.75 C 119.660156 6.75 123.46875 12.015625 125.222656 20 L 107.46875 20 C 109.222656 12.015625 113.035156 6.75 116.347656 6.75 Z M 96.273438 26.625 L 99.785156 26.625 C 99.785156 27.714844 99.785156 28.808594 99.785156 29.9375 L 106.410156 29.9375 C 106.410156 28.808594 106.410156 27.714844 106.410156 26.625 L 126.285156 26.625 C 126.285156 27.714844 126.285156 28.808594 126.285156 29.9375 L 132.910156 29.9375 C 132.910156 28.808594 132.910156 27.714844 132.910156 26.625 L 136.519531 26.625 L 136.519531 28.710938 C 132.082031 31.855469 128.703125 38.25 127.175781 46.5 L 119.660156 46.5 C 119.234375 46.496094 118.828125 46.574219 118.433594 46.730469 C 118.042969 46.886719 117.691406 47.109375 117.382812 47.398438 C 117.074219 47.6875 116.832031 48.023438 116.652344 48.40625 C 116.472656 48.789062 116.371094 49.191406 116.347656 49.613281 L 114.789062 76.3125 L 93.355469 76.3125 Z M 96.273438 26.625 " fill-opacity="1" fill-rule="nonzero"/></g><g clip-path="url(#716eb61149)"><path fill="#ffffff" d="M 3.722656 198.875 L 20.285156 198.875 C 20.664062 198.867188 21.027344 198.789062 21.375 198.640625 L 67.75 182.078125 C 68.070312 181.96875 68.367188 181.808594 68.640625 181.605469 C 68.914062 181.402344 69.148438 181.164062 69.347656 180.886719 C 69.542969 180.613281 69.695312 180.3125 69.804688 179.992188 C 69.910156 179.667969 69.964844 179.339844 69.972656 179 L 69.972656 172.375 L 70.800781 172.375 C 71.101562 172.378906 71.378906 172.46875 71.628906 172.636719 L 84.148438 180.953125 C 85.5 181.859375 86.992188 182.308594 88.621094 182.3125 L 134.996094 182.3125 C 136.027344 182.300781 137.019531 182.109375 137.980469 181.734375 C 138.9375 181.355469 139.800781 180.820312 140.558594 180.125 L 168.121094 154.949219 C 168.898438 154.316406 169.308594 153.5 169.347656 152.5 C 169.324219 152.007812 169.199219 151.546875 168.976562 151.113281 C 168.75 150.679688 168.441406 150.3125 168.054688 150.015625 L 159.375 143.390625 C 159.078125 143.140625 158.746094 142.953125 158.382812 142.820312 C 158.019531 142.6875 157.640625 142.621094 157.253906 142.621094 C 156.867188 142.621094 156.492188 142.6875 156.128906 142.820312 C 155.761719 142.953125 155.433594 143.140625 155.136719 143.390625 L 137.777344 159.125 L 119.359375 159.125 L 122.441406 154.289062 C 122.566406 154.089844 122.671875 153.882812 122.753906 153.660156 C 122.835938 153.441406 122.894531 153.214844 122.925781 152.984375 C 122.960938 152.753906 122.96875 152.519531 122.953125 152.285156 C 122.9375 152.050781 122.898438 151.820312 122.835938 151.597656 C 122.769531 151.371094 122.683594 151.15625 122.574219 150.949219 C 122.464844 150.742188 122.332031 150.546875 122.183594 150.367188 C 122.03125 150.191406 121.863281 150.027344 121.675781 149.882812 C 121.492188 149.742188 121.292969 149.617188 121.082031 149.515625 L 86.300781 132.953125 C 85.855469 132.726562 85.378906 132.613281 84.878906 132.625 L 69.972656 132.625 L 69.972656 53.125 C 69.976562 52.875 69.953125 52.625 69.902344 52.378906 C 69.851562 52.136719 69.777344 51.898438 69.671875 51.671875 C 69.566406 51.445312 69.4375 51.230469 69.285156 51.03125 C 69.132812 50.835938 68.960938 50.65625 68.769531 50.496094 C 68.578125 50.335938 68.367188 50.199219 68.144531 50.089844 C 67.921875 49.976562 67.6875 49.890625 67.445312 49.832031 C 67.203125 49.773438 66.953125 49.742188 66.703125 49.738281 C 66.453125 49.734375 66.207031 49.757812 65.960938 49.8125 L 20.285156 59.75 L 4.382812 56.4375 C 3.894531 56.339844 3.410156 56.351562 2.929688 56.476562 C 2.449219 56.597656 2.015625 56.816406 1.632812 57.132812 C 1.238281 57.449219 0.9375 57.839844 0.71875 58.300781 C 0.503906 58.757812 0.402344 59.242188 0.410156 59.75 L 0.410156 195.5625 C 0.410156 196 0.492188 196.421875 0.660156 196.828125 C 0.828125 197.234375 1.066406 197.59375 1.378906 197.902344 C 1.6875 198.214844 2.046875 198.453125 2.453125 198.621094 C 2.859375 198.789062 3.28125 198.875 3.722656 198.875 Z M 23.597656 132.625 L 46.785156 132.625 L 46.785156 172.375 L 23.597656 172.375 Z M 63.347656 176.679688 L 23.597656 190.855469 L 23.597656 179 L 50.097656 179 C 50.535156 179 50.957031 178.914062 51.363281 178.746094 C 51.769531 178.578125 52.128906 178.339844 52.4375 178.027344 C 52.75 177.71875 52.988281 177.359375 53.15625 176.953125 C 53.324219 176.546875 53.410156 176.125 53.410156 175.6875 L 53.410156 172.375 L 63.347656 172.375 Z M 114.855469 153.890625 L 111.542969 159.125 L 109.324219 159.125 L 88.621094 149.484375 L 85.835938 155.511719 L 107.171875 165.449219 C 107.613281 165.652344 108.074219 165.75 108.5625 165.75 L 139.070312 165.75 C 139.933594 165.753906 140.683594 165.46875 141.320312 164.886719 L 157.585938 150.179688 L 160.898438 152.730469 L 136.222656 175.222656 C 135.914062 175.511719 135.550781 175.667969 135.128906 175.6875 L 88.753906 175.6875 C 88.453125 175.667969 88.175781 175.582031 87.925781 175.421875 L 75.269531 167.105469 C 73.917969 166.199219 72.429688 165.746094 70.800781 165.75 L 53.410156 165.75 L 53.410156 139.25 L 84.113281 139.25 Z M 63.347656 132.625 L 53.410156 132.625 L 53.410156 129.3125 C 53.410156 128.871094 53.324219 128.449219 53.15625 128.042969 C 52.988281 127.636719 52.75 127.28125 52.4375 126.96875 C 52.128906 126.65625 51.769531 126.417969 51.363281 126.25 C 50.957031 126.082031 50.535156 126 50.097656 126 L 23.597656 126 L 23.597656 65.746094 L 63.347656 57.230469 Z M 7.035156 63.789062 L 16.972656 65.777344 L 16.972656 192.25 L 7.035156 192.25 Z M 7.035156 63.789062 " fill-opacity="1" fill-rule="nonzero"/></g><g clip-path="url(#34e84b4b19)"><path fill="#ffffff" d="M 89.847656 82.9375 L 114.390625 82.9375 L 113.035156 105.925781 C 112.972656 106.882812 113.269531 107.710938 113.925781 108.410156 C 114.585938 109.101562 115.390625 109.441406 116.347656 109.4375 L 141.089844 109.4375 L 139.535156 135.738281 C 139.472656 136.695312 139.769531 137.523438 140.425781 138.222656 C 141.085938 138.910156 141.890625 139.253906 142.847656 139.25 L 195.847656 139.25 C 196.800781 139.253906 197.605469 138.914062 198.265625 138.222656 C 198.921875 137.523438 199.21875 136.695312 199.160156 135.738281 L 195.847656 79.425781 C 195.820312 79.003906 195.71875 78.601562 195.539062 78.21875 C 195.359375 77.835938 195.117188 77.5 194.808594 77.210938 C 194.5 76.921875 194.148438 76.699219 193.757812 76.542969 C 193.363281 76.386719 192.957031 76.308594 192.535156 76.3125 L 185.015625 76.3125 C 182.894531 64.71875 177.03125 56.765625 169.742188 56.4375 L 169.347656 49.613281 C 169.320312 49.191406 169.21875 48.789062 169.039062 48.40625 C 168.859375 48.023438 168.617188 47.6875 168.308594 47.398438 C 168 47.109375 167.648438 46.886719 167.257812 46.730469 C 166.863281 46.574219 166.457031 46.496094 166.035156 46.5 L 158.515625 46.5 C 156.359375 34.804688 150.429688 26.789062 143.042969 26.625 L 142.847656 23.113281 C 142.820312 22.691406 142.71875 22.289062 142.539062 21.90625 C 142.359375 21.523438 142.117188 21.1875 141.808594 20.898438 C 141.5 20.609375 141.148438 20.386719 140.757812 20.230469 C 140.363281 20.074219 139.957031 19.996094 139.535156 20 L 132.015625 20 C 129.828125 8.207031 123.832031 0.125 116.347656 0.125 C 108.859375 0.125 102.863281 8.207031 100.675781 20 L 93.160156 20 C 92.734375 19.996094 92.328125 20.074219 91.933594 20.230469 C 91.542969 20.386719 91.191406 20.609375 90.882812 20.898438 C 90.574219 21.1875 90.332031 21.523438 90.152344 21.90625 C 89.972656 22.289062 89.871094 22.691406 89.847656 23.113281 L 86.535156 79.425781 C 86.472656 80.382812 86.769531 81.210938 87.425781 81.910156 C 88.085938 82.601562 88.890625 82.941406 89.847656 82.9375 Z M 189.417969 82.9375 L 192.335938 132.625 L 146.355469 132.625 L 149.273438 82.9375 L 152.785156 82.9375 C 152.785156 84.027344 152.785156 85.121094 152.785156 86.25 L 159.410156 86.25 C 159.410156 85.121094 159.410156 84.027344 159.410156 82.9375 L 179.285156 82.9375 C 179.285156 84.027344 179.285156 85.121094 179.285156 86.25 L 185.910156 86.25 C 185.910156 85.121094 185.910156 84.027344 185.910156 82.9375 Z M 164.277344 76.3125 L 160.46875 76.3125 C 161.121094 73.214844 162.226562 70.289062 163.78125 67.53125 Z M 178.222656 76.3125 L 170.902344 76.3125 L 170.140625 63.0625 C 173.320312 63.890625 176.601562 68.957031 178.222656 76.3125 Z M 162.917969 53.125 L 163.21875 58.421875 C 158.679688 61.503906 155.203125 67.964844 153.675781 76.3125 L 146.160156 76.3125 C 145.734375 76.308594 145.328125 76.386719 144.933594 76.542969 C 144.542969 76.699219 144.191406 76.921875 143.882812 77.210938 C 143.574219 77.5 143.332031 77.835938 143.152344 78.21875 C 142.972656 78.601562 142.871094 79.003906 142.847656 79.425781 L 141.488281 102.8125 L 119.855469 102.8125 L 122.773438 53.125 L 126.285156 53.125 C 126.285156 54.214844 126.285156 55.308594 126.285156 56.4375 L 132.910156 56.4375 C 132.910156 55.308594 132.910156 54.214844 132.910156 53.125 L 152.785156 53.125 C 152.785156 54.214844 152.785156 55.308594 152.785156 56.4375 L 159.410156 56.4375 C 159.410156 55.308594 159.410156 54.214844 159.410156 53.125 Z M 137.578125 46.5 L 133.96875 46.5 C 134.566406 43.511719 135.601562 40.683594 137.082031 38.019531 Z M 151.722656 46.5 L 144.203125 46.5 L 143.441406 33.25 C 146.6875 33.878906 150.066406 38.980469 151.722656 46.5 Z M 116.347656 6.75 C 119.660156 6.75 123.46875 12.015625 125.222656 20 L 107.46875 20 C 109.222656 12.015625 113.035156 6.75 116.347656 6.75 Z M 96.273438 26.625 L 99.785156 26.625 C 99.785156 27.714844 99.785156 28.808594 99.785156 29.9375 L 106.410156 29.9375 C 106.410156 28.808594 106.410156 27.714844 106.410156 26.625 L 126.285156 26.625 C 126.285156 27.714844 126.285156 28.808594 126.285156 29.9375 L 132.910156 29.9375 C 132.910156 28.808594 132.910156 27.714844 132.910156 26.625 L 136.519531 26.625 L 136.519531 28.710938 C 132.082031 31.855469 128.703125 38.25 127.175781 46.5 L 119.660156 46.5 C 119.234375 46.496094 118.828125 46.574219 118.433594 46.730469 C 118.042969 46.886719 117.691406 47.109375 117.382812 47.398438 C 117.074219 47.6875 116.832031 48.023438 116.652344 48.40625 C 116.472656 48.789062 116.371094 49.191406 116.347656 49.613281 L 114.789062 76.3125 L 93.355469 76.3125 Z M 96.273438 26.625 " fill-opacity="1" fill-rule="nonzero"/></g></svg>