<svg xmlns="http://www.w3.org/2000/svg" xmlns:xlink="http://www.w3.org/1999/xlink" width="236" zoomAndPan="magnify" viewBox="0 0 177 177.000001" height="236" preserveAspectRatio="xMidYMid meet" version="1.0"><defs><clipPath id="a119aa8fcb"><path d="M 0.738281 0.3125 L 175.996094 0.3125 L 175.996094 175.574219 L 0.738281 175.574219 Z M 0.738281 0.3125 " clip-rule="nonzero"/></clipPath><clipPath id="b79cb9812e"><path d="M 54 70 L 135 70 L 135 149.648438 L 54 149.648438 Z M 54 70 " clip-rule="nonzero"/></clipPath><clipPath id="c9fc96f50e"><path d="M 121 26.59375 L 138 26.59375 L 138 68 L 121 68 Z M 121 26.59375 " clip-rule="nonzero"/></clipPath></defs><g clip-path="url(#a119aa8fcb)"><path fill="#ffffff" d="M 88.367188 0.3125 C 40.046875 0.3125 0.738281 39.625 0.738281 87.941406 C 0.738281 136.261719 40.046875 175.574219 88.367188 175.574219 C 136.6875 175.574219 175.996094 136.261719 175.996094 87.941406 C 175.996094 39.625 136.6875 0.3125 88.367188 0.3125 Z M 12.421875 87.941406 C 12.421875 46.066406 46.492188 11.996094 88.367188 11.996094 C 107.300781 11.996094 124.59375 19.007812 137.90625 30.511719 C 137.53125 30.742188 137.136719 30.914062 136.8125 31.234375 L 31.660156 136.390625 C 31.335938 136.710938 31.160156 137.113281 30.933594 137.484375 C 19.429688 124.167969 12.421875 106.875 12.421875 87.941406 Z M 88.367188 163.890625 C 69.433594 163.890625 52.140625 156.878906 38.828125 145.375 C 39.199219 145.140625 39.597656 144.972656 39.917969 144.652344 L 145.074219 39.496094 C 145.394531 39.175781 145.570312 38.769531 145.800781 38.402344 C 157.300781 51.71875 164.3125 69.007812 164.3125 87.941406 C 164.3125 129.820312 130.246094 163.890625 88.367188 163.890625 Z M 88.367188 163.890625 " fill-opacity="1" fill-rule="nonzero"/></g><path fill="#ffffff" d="M 105.074219 86.570312 C 104.125 86.570312 103.171875 86.445312 102.230469 86.195312 C 99.410156 85.433594 97.050781 83.621094 95.59375 81.085938 C 94.136719 78.550781 93.75 75.59375 94.503906 72.769531 C 95.257812 69.9375 97.070312 67.574219 99.597656 66.109375 C 102.128906 64.644531 105.078125 64.253906 107.890625 65.019531 C 110.707031 65.777344 113.0625 67.589844 114.523438 70.128906 C 115.980469 72.664062 116.371094 75.617188 115.613281 78.445312 C 114.855469 81.273438 113.050781 83.636719 110.519531 85.097656 C 108.835938 86.074219 106.96875 86.570312 105.074219 86.570312 Z M 105.046875 69 C 103.910156 69 102.785156 69.300781 101.769531 69.886719 C 100.246094 70.769531 99.15625 72.191406 98.703125 73.898438 C 98.246094 75.601562 98.480469 77.378906 99.359375 78.90625 C 100.238281 80.433594 101.65625 81.527344 103.351562 81.984375 C 105.050781 82.433594 106.828125 82.207031 108.347656 81.324219 C 109.871094 80.441406 110.960938 79.019531 111.417969 77.316406 C 111.871094 75.613281 111.636719 73.835938 110.757812 72.308594 C 109.878906 70.78125 108.460938 69.683594 106.761719 69.230469 C 106.195312 69.074219 105.621094 69 105.046875 69 Z M 105.046875 69 " fill-opacity="1" fill-rule="nonzero"/><path fill="#ffffff" d="M 79.9375 101.125 C 78.988281 101.125 78.03125 101 77.089844 100.75 C 74.269531 99.992188 71.910156 98.175781 70.453125 95.640625 C 67.441406 90.40625 69.238281 83.6875 74.457031 80.667969 C 79.679688 77.644531 86.375 79.453125 89.382812 84.683594 C 92.394531 89.917969 90.597656 96.632812 85.378906 99.65625 C 83.699219 100.628906 81.828125 101.125 79.9375 101.125 Z M 79.90625 83.5625 C 78.789062 83.5625 77.660156 83.84375 76.628906 84.441406 C 73.484375 86.261719 72.402344 90.308594 74.21875 93.460938 C 75.097656 94.988281 76.515625 96.082031 78.214844 96.539062 C 79.917969 97 81.683594 96.761719 83.207031 95.878906 C 86.351562 94.058594 87.433594 90.015625 85.617188 86.863281 C 84.402344 84.746094 82.183594 83.5625 79.90625 83.5625 Z M 79.90625 83.5625 " fill-opacity="1" fill-rule="nonzero"/><path fill="#ffffff" d="M 54.796875 115.683594 C 53.847656 115.683594 52.890625 115.558594 51.949219 115.304688 C 49.128906 114.546875 46.773438 112.730469 45.3125 110.195312 C 42.304688 104.960938 44.097656 98.246094 49.316406 95.222656 C 54.539062 92.203125 61.230469 94.007812 64.242188 99.238281 C 67.253906 104.472656 65.457031 111.1875 60.242188 114.210938 C 58.558594 115.183594 56.6875 115.683594 54.796875 115.683594 Z M 54.765625 98.117188 C 53.652344 98.117188 52.523438 98.398438 51.488281 99 C 48.34375 100.820312 47.265625 104.863281 49.078125 108.015625 C 49.957031 109.542969 51.375 110.640625 53.074219 111.09375 C 54.78125 111.554688 56.546875 111.316406 58.070312 110.433594 C 61.210938 108.613281 62.292969 104.570312 60.476562 101.417969 C 59.261719 99.300781 57.042969 98.117188 54.765625 98.117188 Z M 54.765625 98.117188 " fill-opacity="1" fill-rule="nonzero"/><path fill="#ffffff" d="M 54.023438 123.75 C 48.144531 123.75 41.6875 121.503906 35.277344 117.09375 C 34.738281 116.722656 34.394531 116.125 34.339844 115.464844 C 33.367188 102.835938 37.378906 92.949219 45.351562 88.332031 C 49.726562 85.796875 55.035156 85.078125 60.699219 86.257812 C 60.835938 86.277344 60.980469 86.199219 61.023438 86.066406 C 62.84375 80.5625 66.117188 76.308594 70.492188 73.777344 C 74.871094 71.242188 80.179688 70.523438 85.84375 71.699219 C 85.976562 71.71875 86.121094 71.644531 86.164062 71.511719 C 87.980469 66.003906 91.257812 61.753906 95.632812 59.222656 C 103.613281 54.601562 114.152344 56.066406 124.558594 63.226562 C 125.101562 63.601562 125.445312 64.199219 125.5 64.859375 C 126.472656 77.484375 122.457031 87.375 114.484375 91.992188 C 110.117188 94.519531 104.8125 95.25 99.136719 94.066406 C 98.996094 94.042969 98.859375 94.121094 98.816406 94.253906 C 96.996094 99.761719 93.722656 104.015625 89.34375 106.546875 C 84.980469 109.074219 79.671875 109.800781 73.996094 108.621094 C 73.863281 108.601562 73.71875 108.675781 73.675781 108.808594 C 71.855469 114.320312 68.582031 118.570312 64.207031 121.101562 C 61.140625 122.875 57.695312 123.75 54.023438 123.75 Z M 38.605469 114.082031 C 47.28125 119.757812 55.777344 120.949219 62.035156 117.324219 C 65.519531 115.308594 68.050781 111.980469 69.554688 107.4375 C 70.292969 105.199219 72.597656 103.882812 74.878906 104.355469 C 79.550781 105.328125 83.691406 104.792969 87.171875 102.769531 C 90.660156 100.753906 93.191406 97.425781 94.691406 92.878906 C 95.433594 90.644531 97.730469 89.332031 100.019531 89.800781 C 104.691406 90.773438 108.828125 90.234375 112.3125 88.214844 C 118.570312 84.59375 121.792969 76.617188 121.234375 66.242188 C 112.558594 60.5625 104.0625 59.375 97.804688 63 C 94.316406 65.015625 91.789062 68.34375 90.285156 72.886719 C 89.546875 75.121094 87.269531 76.4375 84.964844 75.972656 C 80.289062 74.996094 76.152344 75.53125 72.664062 77.554688 C 69.179688 79.574219 66.648438 82.898438 65.148438 87.441406 C 64.40625 89.667969 62.117188 90.988281 59.824219 90.527344 C 55.152344 89.550781 51.015625 90.089844 47.523438 92.109375 C 41.269531 95.730469 38.042969 103.703125 38.605469 114.082031 Z M 38.605469 114.082031 " fill-opacity="1" fill-rule="nonzero"/><path fill="#ffffff" d="M 73.875 141.179688 C 71.046875 141.179688 68.222656 140.085938 66.085938 137.910156 C 61.859375 133.597656 61.921875 126.648438 66.21875 122.40625 C 68.273438 120.375 70.992188 119.261719 73.875 119.261719 C 76.886719 119.285156 79.621094 120.449219 81.667969 122.535156 C 85.890625 126.847656 85.835938 133.800781 81.539062 138.039062 C 79.414062 140.136719 76.644531 141.179688 73.875 141.179688 Z M 73.875 123.621094 C 72.140625 123.621094 70.503906 124.292969 69.261719 125.515625 C 66.675781 128.070312 66.640625 132.257812 69.1875 134.851562 C 71.730469 137.445312 75.902344 137.484375 78.492188 134.929688 C 81.078125 132.375 81.113281 128.1875 78.566406 125.59375 C 77.335938 124.335938 75.691406 123.636719 73.933594 123.621094 C 73.914062 123.621094 73.898438 123.621094 73.875 123.621094 Z M 73.875 123.621094 " fill-opacity="1" fill-rule="nonzero"/><g clip-path="url(#b79cb9812e)"><path fill="#ffffff" d="M 71.316406 149.648438 C 67.21875 149.648438 62.757812 148.808594 58.09375 147.113281 C 57.476562 146.890625 56.992188 146.394531 56.78125 145.773438 C 53.261719 135.496094 53.78125 126.214844 58.246094 119.625 C 58.921875 118.636719 60.269531 118.371094 61.265625 119.050781 C 62.257812 119.730469 62.515625 121.085938 61.839844 122.082031 C 58.355469 127.21875 57.90625 134.933594 60.5625 143.359375 C 70.378906 146.667969 78.898438 145.683594 84.054688 140.601562 C 86.925781 137.769531 88.542969 133.910156 88.855469 129.136719 C 89.019531 126.785156 90.902344 124.929688 93.238281 124.8125 C 98.007812 124.574219 101.878906 123.019531 104.75 120.183594 C 107.621094 117.351562 109.238281 113.496094 109.550781 108.722656 C 109.707031 106.375 111.59375 104.515625 113.933594 104.398438 C 118.703125 104.15625 122.574219 102.601562 125.445312 99.765625 C 130.597656 94.6875 131.722656 86.160156 128.585938 76.253906 C 126.808594 75.65625 125.058594 75.195312 123.363281 74.882812 C 122.1875 74.660156 121.40625 73.523438 121.625 72.339844 C 121.84375 71.15625 122.980469 70.375 124.15625 70.59375 C 126.398438 71.011719 128.714844 71.652344 131.050781 72.496094 C 131.671875 72.722656 132.15625 73.214844 132.367188 73.839844 C 136.46875 85.816406 135.054688 96.402344 128.492188 102.878906 C 124.894531 106.429688 119.933594 108.460938 114.152344 108.75 C 114.015625 108.757812 113.898438 108.875 113.886719 109.011719 C 113.507812 114.800781 111.402344 119.738281 107.796875 123.296875 C 104.195312 126.851562 99.234375 128.878906 93.457031 129.164062 C 93.320312 129.171875 93.203125 129.292969 93.191406 129.433594 C 92.808594 135.214844 90.707031 140.15625 87.101562 143.710938 C 83.117188 147.644531 77.652344 149.644531 71.316406 149.648438 Z M 71.316406 149.648438 " fill-opacity="1" fill-rule="nonzero"/></g><path fill="#ffffff" d="M 94.574219 120.765625 C 91.746094 120.765625 88.917969 119.667969 86.78125 117.492188 C 83.269531 113.910156 82.648438 108.40625 85.277344 104.101562 C 85.492188 103.746094 85.804688 103.460938 86.175781 103.277344 C 86.613281 103.066406 86.894531 102.933594 87.167969 102.773438 C 88.484375 102.011719 89.683594 101.039062 90.742188 99.878906 C 91.023438 99.570312 91.390625 99.351562 91.792969 99.242188 C 95.589844 98.242188 99.640625 99.34375 102.363281 102.121094 C 106.589844 106.429688 106.53125 113.386719 102.234375 117.625 C 100.109375 119.71875 97.339844 120.765625 94.574219 120.765625 Z M 88.695312 106.898438 C 87.457031 109.398438 87.910156 112.425781 89.878906 114.433594 C 92.429688 117.03125 96.601562 117.066406 99.1875 114.511719 C 101.773438 111.960938 101.808594 107.773438 99.261719 105.175781 C 97.742188 103.621094 95.605469 102.960938 93.464844 103.335938 C 92.226562 104.601562 90.84375 105.679688 89.34375 106.546875 C 89.132812 106.667969 88.914062 106.785156 88.695312 106.898438 Z M 88.695312 106.898438 " fill-opacity="1" fill-rule="nonzero"/><path fill="#ffffff" d="M 115.269531 100.347656 C 112.441406 100.347656 109.613281 99.253906 107.480469 97.078125 C 106.355469 95.929688 105.511719 94.546875 104.96875 92.964844 C 104.753906 92.347656 104.832031 91.667969 105.171875 91.109375 C 105.515625 90.554688 106.085938 90.179688 106.734375 90.09375 C 108.761719 89.820312 110.636719 89.1875 112.308594 88.21875 C 114.917969 86.707031 117.019531 84.410156 118.550781 81.390625 C 118.84375 80.820312 119.371094 80.402344 119.996094 80.257812 C 120.617188 80.109375 121.273438 80.25 121.785156 80.632812 C 122.226562 80.960938 122.660156 81.296875 123.058594 81.699219 C 127.285156 86.011719 127.226562 92.96875 122.929688 97.207031 C 120.804688 99.300781 118.035156 100.347656 115.269531 100.347656 Z M 110.34375 93.769531 C 110.421875 93.855469 110.496094 93.9375 110.578125 94.019531 C 113.125 96.613281 117.296875 96.648438 119.882812 94.09375 C 122.097656 91.910156 122.441406 88.523438 120.894531 85.964844 C 119.167969 88.503906 117.019531 90.523438 114.484375 91.992188 C 113.1875 92.742188 111.804688 93.339844 110.34375 93.769531 Z M 110.34375 93.769531 " fill-opacity="1" fill-rule="nonzero"/><path fill="#ffffff" d="M 123.332031 67.207031 C 122.667969 67.207031 122.035156 66.902344 121.621094 66.367188 C 121.183594 65.808594 110.972656 52.4375 117.980469 37.347656 C 118.488281 36.257812 119.777344 35.777344 120.867188 36.289062 C 121.015625 36.359375 135.628906 43.480469 125.304688 65.9375 C 124.988281 66.628906 124.335938 67.101562 123.585938 67.191406 C 123.5 67.199219 123.414062 67.207031 123.332031 67.207031 Z M 120.949219 41.652344 C 118.4375 49.328125 120.886719 56.289062 122.933594 60.253906 C 126.773438 49.398438 123.375 43.957031 120.949219 41.652344 Z M 120.949219 41.652344 " fill-opacity="1" fill-rule="nonzero"/><g clip-path="url(#c9fc96f50e)"><path fill="#ffffff" d="M 123.335938 67.207031 C 122.582031 67.207031 121.847656 66.816406 121.449219 66.109375 C 120.851562 65.070312 121.210938 63.738281 122.25 63.136719 C 137.886719 54.128906 131.386719 29.851562 131.316406 29.605469 C 130.996094 28.449219 131.671875 27.25 132.828125 26.925781 C 133.96875 26.597656 135.179688 27.277344 135.503906 28.4375 C 135.816406 29.566406 142.988281 56.214844 124.414062 66.917969 C 124.074219 67.113281 123.703125 67.207031 123.335938 67.207031 Z M 123.335938 67.207031 " fill-opacity="1" fill-rule="nonzero"/></g><path fill="#ffffff" d="M 130.316406 76.730469 C 129.582031 76.730469 128.863281 76.355469 128.453125 75.679688 C 127.839844 74.660156 128.152344 73.339844 129.152344 72.707031 C 129.355469 72.5625 136.707031 67.152344 132.5625 46.042969 C 132.332031 44.859375 133.097656 43.714844 134.277344 43.480469 C 135.453125 43.253906 136.597656 44.019531 136.828125 45.199219 C 141.667969 69.867188 131.859375 76.15625 131.441406 76.410156 C 131.089844 76.625 130.699219 76.730469 130.316406 76.730469 Z M 130.316406 76.730469 " fill-opacity="1" fill-rule="nonzero"/></svg>