<svg xmlns="http://www.w3.org/2000/svg" xmlns:xlink="http://www.w3.org/1999/xlink" width="236" zoomAndPan="magnify" viewBox="0 0 177 178.499995" height="238" preserveAspectRatio="xMidYMid meet" version="1.0"><defs><clipPath id="f07231faef"><path d="M 30.070312 36.65625 L 146.746094 36.65625 L 146.746094 142.109375 L 30.070312 142.109375 Z M 30.070312 36.65625 " clip-rule="nonzero"/></clipPath><clipPath id="f77f7f2588"><path d="M 0.390625 1.589844 L 176.148438 1.589844 L 176.148438 177.347656 L 0.390625 177.347656 Z M 0.390625 1.589844 " clip-rule="nonzero"/></clipPath><clipPath id="b296a88494"><path d="M 0.390625 0.3125 L 176.148438 0.3125 L 176.148438 176.070312 L 0.390625 176.070312 Z M 0.390625 0.3125 " clip-rule="nonzero"/></clipPath></defs><g clip-path="url(#f07231faef)"><path fill="#ffffff" d="M 146.382812 93.785156 L 146.382812 93.582031 C 146.371094 93.457031 146.34375 93.332031 146.304688 93.210938 C 146.308594 93.164062 146.308594 93.121094 146.304688 93.078125 C 146.25 92.90625 146.167969 92.753906 146.0625 92.609375 C 146.0625 92.609375 146.0625 92.609375 146.0625 92.515625 C 145.988281 92.421875 145.910156 92.332031 145.820312 92.25 L 122.796875 71.90625 C 122.523438 71.664062 122.207031 71.507812 121.847656 71.4375 C 121.488281 71.363281 121.136719 71.386719 120.789062 71.507812 L 114.097656 73.851562 L 107.859375 46.496094 L 107.859375 46.375 C 107.863281 46.347656 107.863281 46.320312 107.859375 46.296875 C 107.859375 46.296875 107.859375 46.296875 107.859375 46.230469 C 107.816406 46.121094 107.769531 46.019531 107.710938 45.921875 C 107.707031 45.890625 107.707031 45.859375 107.710938 45.828125 C 107.539062 45.574219 107.320312 45.371094 107.054688 45.214844 L 106.960938 45.214844 C 106.859375 45.160156 106.75 45.117188 106.640625 45.082031 L 106.574219 45.082031 L 76.347656 36.816406 C 76 36.722656 75.65625 36.71875 75.308594 36.8125 C 74.960938 36.902344 74.660156 37.074219 74.40625 37.324219 L 51.167969 60.199219 C 51.085938 60.292969 51.007812 60.390625 50.941406 60.492188 C 50.914062 60.53125 50.890625 60.570312 50.875 60.613281 C 50.816406 60.714844 50.773438 60.824219 50.738281 60.933594 C 50.734375 60.972656 50.734375 61.015625 50.738281 61.054688 C 50.699219 61.203125 50.671875 61.355469 50.660156 61.507812 C 50.652344 61.621094 50.652344 61.738281 50.660156 61.855469 L 53.445312 78.265625 C 53.476562 78.378906 53.515625 78.492188 53.5625 78.597656 L 31.53125 93.261719 C 31.46875 93.308594 31.414062 93.359375 31.355469 93.410156 L 31.167969 93.570312 L 30.914062 93.890625 C 30.859375 93.957031 30.808594 94.027344 30.769531 94.101562 C 30.730469 94.175781 30.699219 94.25 30.675781 94.328125 C 30.636719 94.40625 30.605469 94.488281 30.582031 94.570312 C 30.582031 94.648438 30.582031 94.742188 30.582031 94.824219 C 30.574219 94.894531 30.574219 94.964844 30.582031 95.035156 L 30.582031 126.019531 C 30.578125 126.410156 30.683594 126.769531 30.894531 127.097656 C 31.105469 127.425781 31.390625 127.671875 31.746094 127.832031 L 62.171875 141.964844 L 62.4375 142.058594 L 62.574219 142.058594 C 62.71875 142.070312 62.867188 142.070312 63.015625 142.058594 C 63.222656 142.058594 63.421875 142.027344 63.617188 141.964844 L 63.804688 141.882812 L 64.097656 141.75 L 89.414062 122.964844 L 106.53125 137.710938 C 106.664062 137.808594 106.808594 137.890625 106.960938 137.953125 C 107.234375 138.105469 107.53125 138.183594 107.84375 138.191406 C 107.980469 138.203125 108.113281 138.203125 108.246094 138.191406 L 108.378906 138.191406 C 108.460938 138.171875 108.542969 138.144531 108.621094 138.113281 L 138.070312 125.804688 C 138.671875 125.546875 139.066406 125.101562 139.25 124.472656 L 146.410156 94.316406 L 146.410156 94.117188 C 146.414062 94.085938 146.414062 94.054688 146.410156 94.023438 C 146.40625 93.941406 146.398438 93.863281 146.382812 93.785156 Z M 106.667969 132.550781 L 91.472656 119.460938 L 90.496094 90.53125 L 91.257812 87.996094 L 112.570312 108.476562 Z M 121.003906 75.679688 L 140.800781 93.238281 L 115.246094 105.449219 L 94.03125 85.089844 Z M 90.417969 82.117188 L 88.703125 73.09375 L 104.898438 51.601562 L 110.253906 75.183594 Z M 76.429688 40.976562 L 102.515625 48.121094 L 85.796875 70.253906 L 56.347656 60.734375 Z M 55.105469 64.535156 L 84.808594 74.132812 L 87.03125 85.769531 C 87.09375 86.105469 87.242188 86.398438 87.472656 86.652344 L 87.242188 87.425781 L 61.328125 74.679688 C 61.003906 74.523438 60.664062 74.457031 60.304688 74.480469 C 59.949219 74.503906 59.621094 74.613281 59.320312 74.8125 L 57.097656 76.292969 Z M 60.59375 78.785156 L 84.808594 90.691406 L 62.761719 108.820312 L 56.898438 105.703125 L 36.46875 94.851562 Z M 34.582031 98.371094 L 55.316406 109.449219 L 60.992188 112.460938 L 60.992188 137.019531 L 34.582031 124.753906 Z M 65.007812 136.113281 L 65.007812 112.113281 L 86.613281 94.398438 L 87.457031 119.433594 Z M 135.5 122.445312 L 110.734375 132.820312 L 116.585938 109.234375 L 141.511719 97.34375 Z M 135.5 122.445312 " fill-opacity="1" fill-rule="nonzero"/></g><g clip-path="url(#f77f7f2588)"><path fill="#ffffff" d="M 88.269531 1.589844 C 39.816406 1.589844 0.390625 41.011719 0.390625 89.46875 C 0.390625 137.921875 39.816406 177.347656 88.269531 177.347656 C 136.726562 177.347656 176.148438 137.921875 176.148438 89.46875 C 176.148438 41.011719 136.726562 1.589844 88.269531 1.589844 Z M 12.109375 89.46875 C 12.109375 47.472656 46.277344 13.304688 88.269531 13.304688 C 107.257812 13.304688 124.601562 20.335938 137.953125 31.871094 C 137.578125 32.105469 137.179688 32.277344 136.855469 32.597656 L 31.402344 138.050781 C 31.078125 138.375 30.902344 138.777344 30.675781 139.148438 C 19.140625 125.796875 12.109375 108.453125 12.109375 89.46875 Z M 88.269531 165.628906 C 69.285156 165.628906 51.941406 158.597656 38.589844 147.0625 C 38.964844 146.828125 39.363281 146.660156 39.6875 146.335938 L 145.140625 40.882812 C 145.460938 40.558594 145.636719 40.15625 145.867188 39.785156 C 157.402344 53.136719 164.433594 70.480469 164.433594 89.46875 C 164.433594 131.460938 130.269531 165.628906 88.269531 165.628906 Z M 88.269531 165.628906 " fill-opacity="1" fill-rule="nonzero"/></g><g clip-path="url(#b296a88494)"><path fill="#ffffff" d="M 88.269531 0.3125 C 39.816406 0.3125 0.390625 39.738281 0.390625 88.191406 C 0.390625 136.648438 39.816406 176.070312 88.269531 176.070312 C 136.726562 176.070312 176.148438 136.648438 176.148438 88.191406 C 176.148438 39.738281 136.726562 0.3125 88.269531 0.3125 Z M 12.109375 88.191406 C 12.109375 46.199219 46.277344 12.03125 88.269531 12.03125 C 107.257812 12.03125 124.601562 19.0625 137.953125 30.597656 C 137.578125 30.832031 137.179688 31 136.855469 31.324219 L 31.402344 136.777344 C 31.078125 137.101562 30.902344 137.503906 30.675781 137.875 C 19.140625 124.523438 12.109375 107.179688 12.109375 88.191406 Z M 88.269531 164.355469 C 69.285156 164.355469 51.941406 157.324219 38.589844 145.789062 C 38.964844 145.554688 39.363281 145.382812 39.6875 145.0625 L 145.140625 39.609375 C 145.460938 39.285156 145.636719 38.882812 145.867188 38.511719 C 157.402344 51.863281 164.433594 69.207031 164.433594 88.191406 C 164.433594 130.1875 130.269531 164.355469 88.269531 164.355469 Z M 88.269531 164.355469 " fill-opacity="1" fill-rule="nonzero"/></g></svg>