<svg xmlns="http://www.w3.org/2000/svg" xmlns:xlink="http://www.w3.org/1999/xlink" width="238" zoomAndPan="magnify" viewBox="0 0 178.5 178.499993" height="238" preserveAspectRatio="xMidYMid meet" version="1.0"><defs><clipPath id="c75c520a0a"><path d="M 0.449219 0.511719 L 178 0.511719 L 178 178 L 0.449219 178 Z M 0.449219 0.511719 " clip-rule="nonzero"/></clipPath><clipPath id="c4270a02d5"><path d="M 37.171875 36 L 141.421875 36 L 141.421875 147.683594 L 37.171875 147.683594 Z M 37.171875 36 " clip-rule="nonzero"/></clipPath></defs><g clip-path="url(#c75c520a0a)"><path fill="#ffffff" d="M 89.316406 0.511719 C 113.855469 0.511719 136.074219 10.457031 152.15625 26.539062 C 168.238281 42.625 178.183594 64.839844 178.183594 89.378906 C 178.183594 113.917969 168.238281 136.136719 152.15625 152.21875 C 136.074219 168.304688 113.855469 178.25 89.316406 178.25 C 64.777344 178.25 42.558594 168.304688 26.476562 152.21875 C 10.394531 136.136719 0.449219 113.917969 0.449219 89.378906 C 0.449219 64.839844 10.394531 42.625 26.476562 26.539062 C 42.558594 10.457031 64.777344 0.511719 89.316406 0.511719 Z M 145.171875 33.523438 C 130.878906 19.226562 111.128906 10.386719 89.316406 10.386719 C 67.503906 10.386719 47.753906 19.226562 33.460938 33.523438 C 19.164062 47.816406 10.320312 67.566406 10.320312 89.378906 C 10.320312 111.195312 19.164062 130.945312 33.460938 145.238281 C 47.753906 159.535156 67.503906 168.375 89.316406 168.375 C 111.128906 168.375 130.878906 159.535156 145.171875 145.238281 C 159.46875 130.945312 168.3125 111.195312 168.3125 89.378906 C 168.3125 67.566406 159.46875 47.816406 145.171875 33.523438 " fill-opacity="1" fill-rule="nonzero"/></g><g clip-path="url(#c4270a02d5)"><path fill="#ffffff" d="M 80.328125 70.96875 C 80.328125 70.96875 73.855469 55.355469 62.613281 53.875 C 62.613281 53.875 64.296875 55.726562 66.929688 59.105469 C 74.722656 69.101562 90.851562 92.496094 96.453125 121.117188 C 96.453125 121.117188 104.628906 53.191406 141.417969 36.324219 C 141.417969 36.324219 108.941406 72.339844 101.675781 147.101562 L 91.230469 147.101562 C 91.230469 147.101562 88.960938 102.882812 68.972656 77.351562 C 68.972656 77.351562 53.53125 78.71875 48.078125 68.234375 C 42.628906 57.75 43.992188 46.808594 37.175781 36.324219 C 87.746094 32.066406 80.328125 70.96875 80.328125 70.96875 Z M 80.328125 70.96875 " fill-opacity="1" fill-rule="nonzero"/></g></svg>