<svg xmlns="http://www.w3.org/2000/svg" xmlns:xlink="http://www.w3.org/1999/xlink" width="239" zoomAndPan="magnify" viewBox="0 0 179.25 178.499993" height="238" preserveAspectRatio="xMidYMid meet" version="1.0"><defs><clipPath id="ff81234d1a"><path d="M 42.121094 37.128906 L 136 37.128906 L 136 136 L 42.121094 136 Z M 42.121094 37.128906 " clip-rule="nonzero"/></clipPath><clipPath id="87060b8ddf"><path d="M 0.640625 0.179688 L 177.652344 0.179688 L 177.652344 177.191406 L 0.640625 177.191406 Z M 0.640625 0.179688 " clip-rule="nonzero"/></clipPath></defs><g clip-path="url(#ff81234d1a)"><path fill="#ffffff" d="M 91.394531 62.824219 C 91.527344 62.738281 91.632812 62.679688 91.726562 62.609375 C 97.644531 58.246094 104.316406 56.75 111.480469 57.710938 C 123.792969 59.359375 133.023438 68.445312 135.316406 80.851562 C 136.226562 85.777344 136.066406 90.722656 135.585938 95.660156 C 134.53125 106.398438 130.722656 116.070312 124.085938 124.574219 C 121.378906 128.046875 118.289062 131.136719 114.5 133.433594 C 111.257812 135.402344 107.792969 136.386719 103.976562 135.652344 C 102.882812 135.441406 101.871094 135.003906 100.863281 134.542969 C 95.636719 132.144531 90.191406 131.28125 84.496094 132.234375 C 82.230469 132.613281 80.019531 133.242188 77.96875 134.261719 C 72.0625 137.199219 66.707031 135.960938 61.667969 132.226562 C 56.976562 128.75 53.296875 124.335938 50.242188 119.378906 C 44.492188 110.050781 42.121094 99.820312 42.125 88.921875 C 42.125 83.820312 42.789062 78.882812 44.914062 74.222656 C 49.046875 65.15625 55.925781 59.480469 65.769531 57.847656 C 73.679688 56.535156 80.980469 58.175781 87.34375 63.304688 C 87.457031 63.394531 87.554688 63.589844 87.71875 63.492188 C 87.921875 63.375 87.835938 63.121094 87.875 62.929688 C 89.21875 55.621094 92.046875 49.023438 97.117188 43.515625 C 99.367188 41.074219 101.949219 39.117188 105.203125 38.21875 C 109.101562 37.140625 112.671875 38.039062 116.035156 40.074219 C 116.910156 40.605469 117.722656 41.242188 118.578125 41.816406 C 118.976562 42.082031 118.996094 42.320312 118.746094 42.757812 C 114.65625 49.9375 105.855469 54.191406 97.714844 52.882812 C 96.90625 52.753906 96.101562 52.582031 95.304688 52.390625 C 95 52.320312 94.84375 52.371094 94.691406 52.652344 C 92.996094 55.761719 91.9375 59.085938 91.320312 62.5625 C 91.308594 62.621094 91.355469 62.695312 91.394531 62.824219 Z M 91.394531 62.824219 " fill-opacity="1" fill-rule="nonzero"/></g><g clip-path="url(#87060b8ddf)"><path fill="#ffffff" d="M 89.140625 0.179688 C 113.578125 0.179688 135.703125 10.085938 151.71875 26.101562 C 167.734375 42.117188 177.640625 64.242188 177.640625 88.679688 C 177.640625 113.113281 167.734375 135.242188 151.71875 151.253906 C 135.703125 167.273438 113.578125 177.179688 89.140625 177.179688 C 64.703125 177.179688 42.578125 167.273438 26.5625 151.253906 C 10.546875 135.242188 0.640625 113.113281 0.640625 88.679688 C 0.640625 64.242188 10.546875 42.117188 26.5625 26.101562 C 42.578125 10.085938 64.703125 0.179688 89.140625 0.179688 Z M 144.765625 33.054688 C 130.53125 18.820312 110.863281 10.015625 89.140625 10.015625 C 67.417969 10.015625 47.75 18.820312 33.515625 33.054688 C 19.28125 47.289062 10.476562 66.953125 10.476562 88.679688 C 10.476562 110.402344 19.28125 130.070312 33.515625 144.304688 C 47.75 158.539062 67.417969 167.34375 89.140625 167.34375 C 110.863281 167.34375 130.53125 158.539062 144.765625 144.304688 C 159 130.070312 167.808594 110.402344 167.808594 88.679688 C 167.808594 66.953125 159 47.289062 144.765625 33.054688 " fill-opacity="1" fill-rule="nonzero"/></g></svg>